<svg width="28" height="28" viewBox="0 0 28 28" fill="none" xmlns="http://www.w3.org/2000/svg">
<g clip-path="url(#clip0_1236_1993)">
<g filter="url(#filter0_d_1236_1993)">
<path d="M9.33203 15.1667V5.25C9.33203 4.78587 9.51641 4.34075 9.84459 4.01256C10.1728 3.68437 10.6179 3.5 11.082 3.5C11.5462 3.5 11.9913 3.68437 12.3195 4.01256C12.6477 4.34075 12.832 4.78587 12.832 5.25V14M12.832 13.4167V11.0833C12.832 10.8535 12.8773 10.626 12.9652 10.4136C13.0532 10.2013 13.1821 10.0084 13.3446 9.8459C13.5071 9.68339 13.7 9.55449 13.9123 9.46654C14.1247 9.3786 14.3522 9.33333 14.582 9.33333C14.8118 9.33333 15.0394 9.3786 15.2517 9.46654C15.464 9.55449 15.657 9.68339 15.8195 9.8459C15.982 10.0084 16.1109 10.2013 16.1988 10.4136C16.2868 10.626 16.332 10.8535 16.332 11.0833V14M16.332 12.25C16.332 11.7859 16.5164 11.3408 16.8446 11.0126C17.1728 10.6844 17.6179 10.5 18.082 10.5C18.5462 10.5 18.9913 10.6844 19.3195 11.0126C19.6477 11.3408 19.832 11.7859 19.832 12.25V14" stroke="#979797" stroke-width="2" stroke-linecap="round" stroke-linejoin="round"/>
<path d="M19.8326 13.417C19.8326 12.9529 20.0169 12.5077 20.3451 12.1796C20.6733 11.8514 21.1184 11.667 21.5826 11.667C22.0467 11.667 22.4918 11.8514 22.82 12.1796C23.1482 12.5077 23.3326 12.9529 23.3326 13.417V18.667C23.3326 20.5235 22.5951 22.304 21.2823 23.6167C19.9696 24.9295 18.1891 25.667 16.3326 25.667H13.9992H14.2419C13.0826 25.6672 11.9415 25.3795 10.9209 24.8297C9.90025 24.2799 9.03217 23.4852 8.39457 22.517L8.1659 22.167C7.8019 21.6085 6.52402 19.381 4.33224 15.4843C4.10876 15.0871 4.04907 14.6184 4.16585 14.1778C4.28263 13.7373 4.56668 13.3597 4.95757 13.1253C5.37411 12.8761 5.86186 12.7729 6.34364 12.8321C6.82542 12.8912 7.27372 13.1094 7.61757 13.452L9.33257 15.167" stroke="#979797" stroke-width="2" stroke-linecap="round" stroke-linejoin="round"/>
</g>
</g>
<defs>
<filter id="filter0_d_1236_1993" x="-1.59258" y="1.8" width="30.6246" height="33.567" filterUnits="userSpaceOnUse" color-interpolation-filters="sRGB">
<feFlood flood-opacity="0" result="BackgroundImageFix"/>
<feColorMatrix in="SourceAlpha" type="matrix" values="0 0 0 0 0 0 0 0 0 0 0 0 0 0 0 0 0 0 127 0" result="hardAlpha"/>
<feOffset dy="4"/>
<feGaussianBlur stdDeviation="2.35"/>
<feComposite in2="hardAlpha" operator="out"/>
<feColorMatrix type="matrix" values="0 0 0 0 0 0 0 0 0 0 0 0 0 0 0 0 0 0 0.55 0"/>
<feBlend mode="normal" in2="BackgroundImageFix" result="effect1_dropShadow_1236_1993"/>
<feBlend mode="normal" in="SourceGraphic" in2="effect1_dropShadow_1236_1993" result="shape"/>
</filter>
<clipPath id="clip0_1236_1993">
<rect width="28" height="28" fill="white"/>
</clipPath>
</defs>
</svg>
