# Blender 4.0.1
# www.blender.org
mtllib cheese.mtl
o 立方体.008
v -0.023191 0.993620 2.176596
v 0.008905 -0.993851 2.176596
v -2.001020 0.961679 -1.793865
v -1.968924 -1.025791 -1.793865
v 1.968924 1.025791 -1.793865
v 2.001020 -0.961679 -1.793865
vn -0.0137 0.7966 0.6043
vn 0.0120 -0.7966 0.6043
vn -0.4957 -0.8094 -0.3149
vn -0.5216 0.7929 -0.3149
vn 0.5221 -0.7928 -0.3142
vn 0.4963 0.8093 -0.3142
vt 0.307565 0.306319
vt 0.484856 0.306319
vt 0.484856 0.525279
vt 0.307565 0.525279
vt 0.606337 0.723024
vt 0.606337 0.927478
vt 0.421384 0.927478
vt 0.421384 0.723024
vt 0.579146 0.818271
vt 0.465393 0.892439
vt 0.302045 0.586293
vt 0.415799 0.512125
vt 0.253051 0.387820
vt 0.473515 0.397438
vt 0.354186 0.636321
vt 0.428587 0.679270
vt 0.644372 0.649479
vt 0.563817 0.902858
s 1
usemtl planet3.001
f 1/1/1 3/4/4 4/3/3 2/2/2
f 3/5/4 5/8/6 6/7/5 4/6/3
f 5/9/6 1/12/1 2/11/2 6/10/5
f 3/13/4 1/15/1 5/14/6
f 6/16/5 2/18/2 4/17/3
