# Blender 4.0.1
# www.blender.org
mtllib cheese.mtl
o 立方体.007
v -2.115693 -0.617161 1.956122
v -2.115693 -0.078896 1.956122
v -2.115693 -0.617161 -1.653723
v -2.115693 -0.078896 -1.653723
v 1.344706 -0.617161 1.956122
v 1.344706 -0.078896 1.956122
v 1.344706 -0.617161 -1.653723
v 1.344706 -0.078896 -1.653723
v -2.115693 -0.625296 -2.313255
v -2.115693 -0.625296 -1.627841
v -2.115693 1.197697 -2.313255
v -2.115693 1.197697 -1.627841
v 1.344706 -0.625296 -2.313255
v 1.344706 -0.625296 -1.627841
v 1.344706 1.197697 -2.313255
v 1.344706 1.197697 -1.627841
v -2.115693 -0.087050 2.014185
v -2.115693 0.769801 2.014185
v -2.115693 -0.087050 -1.636811
v -2.115693 0.769801 -1.636811
v 1.344706 -0.087050 2.014185
v 1.344706 0.769801 2.014185
v 1.344706 -0.087050 -1.636811
v 1.344706 0.769801 -1.636811
v -2.115693 0.747796 1.426434
v -2.115693 1.061547 1.426434
v -2.115693 0.747796 -1.049060
v -2.115693 1.061547 -1.049060
v 1.344706 0.747796 1.426434
v 1.344706 1.061547 1.426434
v 1.344706 0.747796 -1.049060
v 1.344706 1.061547 -1.049060
vn -0.1521 -0.9776 0.1458
vn -0.1521 0.9776 0.1458
vn -0.1521 0.9776 -0.1458
vn -0.1521 -0.9776 -0.1458
vn 0.1521 0.9776 -0.1458
vn 0.1521 -0.9776 -0.1458
vn 0.1521 0.9776 0.1458
vn 0.1521 -0.9776 0.1458
vt 0.641486 0.664890
vt 0.632753 0.693514
vt 0.828078 0.751080
vt 0.836811 0.722455
vt 0.854310 0.727558
vt 0.821631 0.716644
vt 0.792094 0.802070
vt 0.824774 0.812985
vt 0.636130 0.692204
vt 0.622635 0.732627
vt 0.799687 0.789723
vt 0.813182 0.749300
vt 0.630309 0.743086
vt 0.625364 0.762326
vt 0.779824 0.800674
vt 0.784769 0.781434
vt 0.834592 0.789859
vt 0.826555 0.826068
vt 0.575542 0.753901
vt 0.583578 0.717692
s 1
usemtl mango
f 1/1/1 2/2/2 4/3/3 3/4/4
f 3/4/4 4/3/3 8/3/5 7/4/6
f 7/4/6 8/3/5 6/2/7 5/1/8
f 5/1/8 6/2/7 2/2/2 1/1/1
f 3/4/4 7/4/6 5/1/8 1/1/1
f 8/3/5 4/3/3 2/2/2 6/2/7
f 9/5/4 10/6/1 12/7/2 11/8/3
f 11/8/3 12/7/2 16/7/7 15/8/5
f 15/8/5 16/7/7 14/6/8 13/5/6
f 13/5/6 14/6/8 10/6/1 9/5/4
f 11/8/3 15/8/5 13/5/6 9/5/4
f 16/7/7 12/7/2 10/6/1 14/6/8
f 17/9/1 18/10/2 20/11/3 19/12/4
f 19/12/4 20/11/3 24/11/5 23/12/6
f 23/12/6 24/11/5 22/10/7 21/9/8
f 21/9/8 22/10/7 18/10/2 17/9/1
f 19/12/4 23/12/6 21/9/8 17/9/1
f 24/11/5 20/11/3 18/10/2 22/10/7
f 25/13/1 26/14/2 28/15/3 27/16/4
f 27/16/4 28/15/3 32/15/5 31/16/6
f 31/17/6 32/18/5 30/19/7 29/20/8
f 29/13/8 30/14/7 26/14/2 25/13/1
f 27/16/4 31/16/6 29/13/8 25/13/1
f 32/15/5 28/15/3 26/14/2 30/14/7
