# Blender 4.0.1
# www.blender.org
mtllib mirror.mtl
o 立方体.007
v -0.085925 -1.159958 -0.259042
v 0.120915 0.470155 -0.174108
v -0.333361 -1.161170 0.366799
v -0.126521 0.468943 0.451733
v -0.158623 -1.162504 -0.287789
v 0.048957 0.460953 -0.202576
v -0.405319 -1.170371 0.338332
v -0.198479 0.459742 0.423265
v 0.199477 0.136272 -0.143694
v -0.047959 0.135060 0.482147
v -0.119918 0.125859 0.453679
v 0.127518 0.127071 -0.172162
v 1.024050 -1.038674 -0.756575
v 0.255903 2.080228 -1.054235
v 0.136123 -1.043023 1.489262
v -0.632024 2.075879 1.191602
v 0.806071 -1.100596 -0.842876
v 0.037924 2.018306 -1.140536
v -0.081856 -1.104945 1.402961
v -0.850003 2.013958 1.105300
vn 0.9490 0.1115 0.2949
vn 0.9351 0.3307 -0.1277
vn 0.5945 0.3290 0.7337
vn 0.8939 0.1113 0.4342
vn -0.9495 -0.1077 -0.2946
vn -0.9474 -0.0874 0.3079
vn -0.8941 -0.1075 -0.4347
vn -0.4811 -0.0852 -0.8725
vn 0.2099 -0.3116 0.9267
vn -0.9473 -0.1217 -0.2965
vn -0.8929 -0.1211 -0.4336
vn 0.7872 -0.3086 -0.5340
vn 0.9493 0.1087 0.2948
vn 0.9233 0.3445 -0.1697
vn 0.5572 0.3427 0.7564
vn 0.8942 0.1084 0.4344
vn -0.9493 -0.1087 -0.2948
vn -0.9233 -0.3445 0.1697
vn -0.8942 -0.1084 -0.4344
vn -0.5572 -0.3427 -0.7564
vt 0.763001 0.692398
vt 0.762995 0.644439
vt 0.844183 0.644439
vt 0.844189 0.692398
vt 0.762995 0.000229
vt 0.788004 0.043200
vt 0.799504 0.123570
vt 0.774495 0.080599
vt 0.810959 0.774051
vt 0.762995 0.774045
vt 0.762995 0.692857
vt 0.810959 0.692863
vt 0.824971 0.080599
vt 0.799963 0.123570
vt 0.811463 0.043200
vt 0.836472 0.000229
vt 0.836930 0.080882
vt 0.836935 0.000263
vt 0.918124 0.000229
vt 0.918119 0.080891
vt 0.844187 0.563816
vt 0.762999 0.563816
vt 0.824609 0.563306
vt 0.836472 0.482988
vt 0.999771 0.000263
vt 0.999771 0.466763
vt 0.918582 0.466773
vt 0.918582 0.000229
vt 0.762995 0.482988
vt 0.774495 0.563358
vt 0.918124 0.547344
vt 0.836935 0.547335
vt 0.292089 0.734315
vt 0.292061 0.248419
vt 0.583406 0.248435
vt 0.583434 0.734330
vt 0.583892 0.734049
vt 0.583892 0.233984
vt 0.672985 0.000229
vt 0.672985 0.500294
vt 0.000229 0.486186
vt 0.000257 0.000245
vt 0.291602 0.000229
vt 0.291574 0.486170
vt 0.673443 0.500294
vt 0.673443 0.000229
vt 0.762536 0.233984
vt 0.762536 0.734049
vt 0.000257 0.734363
vt 0.291602 0.734348
vt 0.583434 0.000245
vt 0.292089 0.000229
s 1
usemtl mirror
f 9/1/1 2/2/2 4/3/3 10/4/4
f 10/5/4 4/6/3 8/7/5 11/8/6
f 11/9/6 8/10/5 6/11/7 12/12/8
f 12/13/8 6/14/7 2/15/2 9/16/1
f 3/17/9 7/18/10 5/19/11 1/20/12
f 8/21/5 4/3/3 2/2/2 6/22/7
f 5/23/11 12/13/8 9/16/1 1/24/12
f 7/25/10 11/26/6 12/27/8 5/28/11
f 3/29/9 10/5/4 11/8/6 7/30/10
f 1/20/12 9/31/1 10/32/4 3/17/9
f 13/33/13 14/34/14 16/35/15 15/36/16
f 15/37/16 16/38/15 20/39/17 19/40/18
f 19/41/18 20/42/17 18/43/19 17/44/20
f 17/45/20 18/46/19 14/47/14 13/48/13
f 15/49/16 19/41/18 17/44/20 13/50/13
f 20/51/17 16/35/15 14/34/14 18/52/19
