# Blender 4.0.1
# www.blender.org
mtllib ladder.mtl
o å¹³é¢.040
v 0.802108 -2.858425 0.434293
v 0.656418 -2.858425 -0.633327
v -0.967083 1.852666 0.675722
v -1.112773 1.852666 -0.391899
v -0.816872 1.542731 0.646058
v -0.569822 0.884477 0.612345
v -0.322772 0.226223 0.578632
v -0.075722 -0.432031 0.544919
v 0.171327 -1.090285 0.511206
v 0.418377 -1.748539 0.477493
v 0.665430 -2.406781 0.443775
v 0.522197 -2.406782 -0.605841
v 0.275143 -1.748539 -0.572132
v 0.028093 -1.090285 -0.538419
v -0.218957 -0.432031 -0.504706
v -0.466007 0.226223 -0.470993
v -0.713056 0.884477 -0.437280
v -0.960106 1.542731 -0.403567
v -0.488628 1.502205 0.523613
v -0.241578 0.843950 0.489900
v 0.005471 0.185696 0.456187
v 0.252521 -0.472558 0.422474
v 0.499571 -1.130812 0.388761
v 0.746620 -1.789066 0.355048
v 0.993670 -2.447320 0.321335
v 0.871241 -2.447320 -0.575825
v 0.624192 -1.789066 -0.542112
v 0.377142 -1.130812 -0.508399
v 0.130092 -0.472558 -0.474686
v -0.116957 0.185696 -0.440973
v -0.364007 0.843950 -0.407260
v -0.611057 1.502205 -0.373547
v 1.188774 -2.861502 0.381528
v 1.043084 -2.859429 -0.686093
v -0.787623 1.962378 0.651232
v -0.933314 1.962378 -0.416389
v -0.652284 2.056878 0.632763
v -0.405234 1.398624 0.599050
v -0.158184 0.740369 0.565337
v 0.088865 0.082115 0.531624
v 0.335915 -0.576139 0.497911
v 0.582965 -1.234393 0.464198
v 0.830014 -1.892647 0.430485
v 0.684324 -1.892647 -0.637136
v 0.437275 -1.234393 -0.603423
v 0.190225 -0.576139 -0.569710
v -0.056825 0.082115 -0.535997
v -0.303875 0.740369 -0.502284
v -0.550925 1.398624 -0.468571
v -0.797974 2.056878 -0.434857
v 0.790477 -2.858425 0.349063
v 0.668048 -2.858425 -0.548097
v -0.978714 1.852666 0.590491
v -1.101143 1.852666 -0.306669
v -0.843374 1.492059 0.572023
v -0.596325 0.833805 0.538310
v -0.349275 0.175551 0.504597
v -0.102225 -0.482703 0.470884
v 0.144824 -1.140957 0.437171
v 0.391874 -1.799212 0.403457
v 0.638924 -2.457465 0.369744
v 0.516495 -2.457465 -0.527416
v 0.269445 -1.799212 -0.493703
v 0.022396 -1.140957 -0.459990
v -0.224654 -0.482703 -0.426277
v -0.471704 0.175551 -0.392564
v -0.718753 0.833805 -0.358851
v -0.965803 1.492059 -0.325138
v -0.524629 1.388898 0.528526
v -0.277579 0.730644 0.494813
v -0.030530 0.072390 0.461100
v 0.216520 -0.585864 0.427387
v 0.463570 -1.244118 0.393674
v 0.710620 -1.902373 0.359961
v 0.957669 -2.560627 0.326248
v 0.835240 -2.560627 -0.570913
v 0.588191 -1.902373 -0.537200
v 0.341141 -1.244118 -0.503487
v 0.094091 -0.585864 -0.469774
v -0.152958 0.072390 -0.436061
v -0.400008 0.730644 -0.402348
v -0.647058 1.388898 -0.368635
v 1.177143 -2.861502 0.296298
v 1.054715 -2.859429 -0.600863
v -0.799254 1.962378 0.566002
v -0.921683 1.962378 -0.331159
v -0.663915 2.056878 0.547533
v -0.416865 1.398624 0.513820
v -0.169815 0.740369 0.480107
v 0.077235 0.082115 0.446394
v 0.324284 -0.576139 0.412681
v 0.571334 -1.234393 0.378968
v 0.818384 -1.892647 0.345255
v 0.695955 -1.892647 -0.551905
v 0.448905 -1.234393 -0.518192
v 0.201856 -0.576139 -0.484479
v -0.045194 0.082115 -0.450766
v -0.292244 0.740369 -0.417053
v -0.539294 1.398624 -0.383340
v -0.786343 2.056878 -0.349627
vn 0.1167 0.9930 -0.0159
vn 0.1496 -0.0226 0.9885
vn -0.1602 -0.0096 -0.9870
vn 0.1101 -0.0096 0.9939
vn 0.1185 0.0005 0.9930
vn -0.1208 -0.0226 -0.9924
vn -0.1519 0.0005 -0.9884
vn -0.3026 -0.9522 0.0413
vn -0.1352 -0.0000 -0.9908
vn 0.1352 -0.0000 0.9908
vn -0.8958 -0.3140 0.3144
vn -0.9167 -0.3898 -0.0875
vn -0.8598 -0.3898 0.3299
vn -0.7975 -0.3253 0.5081
vn -0.7974 -0.3253 0.5082
vn -0.9473 -0.3140 -0.0629
vn -0.9044 -0.3253 -0.2759
vn -0.9045 -0.3253 -0.2759
vn -0.9435 0.3054 0.1288
vn 0.9435 -0.3054 -0.1288
vn -0.1102 -0.4279 -0.8971
vn 0.1342 -0.4279 0.8938
vn 0.9281 0.3501 -0.1267
vn -0.5637 0.8224 0.0769
vn 0.9266 0.3542 -0.1264
vn 0.9279 0.3507 -0.1266
vn -0.5133 0.8553 0.0701
vn -0.0078 -1.0000 0.0011
vn -0.0025 -1.0000 0.0003
vt 0.344408 0.775507
vt 0.002927 0.775507
vt 0.027728 0.761919
vt 0.319607 0.761919
vt 0.344408 0.125353
vt 0.002927 0.125353
vt 0.027728 0.111765
vt 0.319607 0.111765
vt 0.344408 0.385415
vt 0.002927 0.385415
vt 0.027728 0.371827
vt 0.319607 0.371827
vt 0.344408 0.645476
vt 0.002927 0.645476
vt 0.027728 0.631888
vt 0.319607 0.631888
vt 0.002929 0.905535
vt 0.027728 0.891950
vt 0.319607 0.891950
vt 0.344406 0.905535
vt 0.344408 0.255384
vt 0.002927 0.255384
vt 0.027728 0.241796
vt 0.319607 0.241796
vt 0.344408 0.515445
vt 0.002927 0.515445
vt 0.027728 0.501857
vt 0.319607 0.501857
vt 0.425232 0.123448
vt 0.400779 -0.000000
vt 0.412440 0.028978
vt 0.427502 0.063953
vt 0.376327 0.908229
vt 0.376327 0.777435
vt 0.400779 0.653987
vt 0.400779 0.784784
vt 0.425232 0.254245
vt 0.400779 0.130797
vt 0.376327 0.646637
vt 0.400779 0.523190
vt 0.425232 0.385043
vt 0.400779 0.261595
vt 0.376327 0.515840
vt 0.400779 0.392392
vt 0.425232 0.515840
vt 0.400779 0.392392
vt 0.427429 1.000000
vt 0.401111 0.977589
vt 0.400779 0.784784
vt 0.425232 0.908229
vt 0.376327 0.385043
vt 0.400779 0.261595
vt 0.425232 0.646637
vt 0.400779 0.523190
vt 0.376327 0.254245
vt 0.400779 0.130797
vt 0.425232 0.777435
vt 0.400779 0.653987
vt 0.374057 0.063953
vt 0.389119 0.028978
vt 0.400779 -0.000000
vt 0.376327 0.123448
vt 0.400501 0.977131
vt 0.374130 1.000000
vt 0.611670 0.583756
vt 0.592167 0.583756
vt 0.592167 0.291878
vt 0.611670 0.291878
vt 0.631173 0.583756
vt 0.611670 0.291878
vt 0.631173 0.291878
vt 0.639165 0.291878
vt 0.619662 0.291878
vt 0.619662 -0.000000
vt 0.639165 -0.000000
vt 0.658669 -0.000000
vt 0.678172 -0.000000
vt 0.678172 0.291878
vt 0.658669 0.291878
vt 0.670180 0.291878
vt 0.670180 0.583756
vt 0.650677 0.583756
vt 0.650677 0.291878
vt 0.650677 0.583756
vt 0.631173 0.583756
vt 0.631173 0.291878
vt 0.650677 0.291878
vt 0.658669 0.291878
vt 0.639165 -0.000000
vt 0.658669 -0.000000
vt 0.347335 0.135607
vt 0.347335 0.063953
vt 0.362397 0.028978
vt 0.374057 -0.000000
vt 0.454224 0.920392
vt 0.427502 0.784784
vt 0.427502 0.653987
vt 0.454224 0.789594
vt 0.374057 0.130797
vt 0.347335 0.266405
vt 0.427502 0.523190
vt 0.454224 0.658797
vt 0.374057 0.261595
vt 0.347335 0.397202
vt 0.427502 0.392392
vt 0.454224 0.528000
vt 0.374057 0.392392
vt 0.347335 0.528000
vt 0.347408 1.000000
vt 0.347335 0.920392
vt 0.374057 0.784784
vt 0.373725 0.977590
vt 0.427502 0.261595
vt 0.454224 0.397202
vt 0.374057 0.523190
vt 0.347335 0.658797
vt 0.427502 0.130797
vt 0.454224 0.266405
vt 0.374057 0.653987
vt 0.347335 0.789594
vt 0.454224 0.063953
vt 0.454224 0.135607
vt 0.427502 -0.000000
vt 0.439162 0.028978
vt 0.454151 1.000000
vt 0.427780 0.977131
vt 0.000000 0.997025
vt 0.027728 0.917892
vt 0.027728 0.997025
vt 0.347335 0.066473
vt 0.319607 0.137707
vt 0.319607 0.066473
vt 0.000000 0.066473
vt 0.027728 0.066473
vt 0.027728 0.137707
vt 0.027728 0.267738
vt 0.027728 0.397769
vt 0.027728 0.527800
vt 0.027728 0.657830
vt 0.027728 0.787861
vt 0.347335 0.997025
vt 0.319607 0.997025
vt 0.319607 0.917892
vt 0.319607 0.787861
vt 0.319607 0.657830
vt 0.319607 0.527800
vt 0.319607 0.397769
vt 0.319607 0.267738
vt 0.564671 0.291878
vt 0.564671 -0.000000
vt 0.592167 -0.000000
vt 0.592167 0.291878
vt 0.509681 0.583756
vt 0.509681 0.291878
vt 0.537176 0.291878
vt 0.537176 0.583756
vt 0.537176 0.291878
vt 0.537176 -0.000000
vt 0.564671 -0.000000
vt 0.564671 0.291878
vt 0.537176 0.583756
vt 0.537176 0.291878
vt 0.564671 0.291878
vt 0.564671 0.583756
vt 0.564671 0.583756
vt 0.592167 0.291878
vt 0.509681 0.291878
vt 0.509681 0.000000
vt 0.537176 0.000000
vt 0.537176 0.291878
vt 0.619662 -0.000000
vt 0.619662 0.291878
vt 0.530219 0.598813
vt 0.548652 0.583756
vt 0.548652 0.611483
vt 0.529166 0.611474
vt 0.626595 0.611483
vt 0.645028 0.626540
vt 0.646081 0.639201
vt 0.626595 0.639210
vt 0.627648 0.598813
vt 0.646081 0.583756
vt 0.646081 0.611483
vt 0.626595 0.611474
vt 0.529166 0.611483
vt 0.547599 0.626540
vt 0.548652 0.639201
vt 0.529166 0.639210
vt 0.549705 0.598813
vt 0.568138 0.583756
vt 0.568138 0.611483
vt 0.548652 0.611474
vt 0.587624 0.583756
vt 0.606057 0.598813
vt 0.607109 0.611474
vt 0.587624 0.611483
vt 0.569191 0.598813
vt 0.587624 0.583756
vt 0.587624 0.611483
vt 0.568138 0.611474
vt 0.587624 0.611483
vt 0.606057 0.626540
vt 0.607109 0.639201
vt 0.587624 0.639210
vt 0.509681 0.583756
vt 0.528114 0.598810
vt 0.509681 0.611483
vt 0.549705 0.626537
vt 0.568138 0.611483
vt 0.568138 0.639210
vt 0.569191 0.626540
vt 0.587624 0.639210
vt 0.568138 0.639201
vt 0.607109 0.611483
vt 0.625542 0.626540
vt 0.626595 0.639201
vt 0.607109 0.639210
vt 0.510733 0.626540
vt 0.529166 0.611483
vt 0.529166 0.639210
vt 0.509681 0.639201
vt 0.607109 0.583756
vt 0.625542 0.598813
vt 0.626595 0.611474
vt 0.607109 0.611483
vt 0.509681 0.783130
vt 0.509681 0.975551
vt 0.481952 0.975551
vt 0.481952 0.783130
vt 0.347335 0.000000
vt 0.347335 0.030071
vt 0.319607 0.030071
vt 0.319607 0.000000
vt 0.000000 0.030071
vt 0.000000 0.000000
vt 0.027728 0.000000
vt 0.027728 0.030071
vt 0.509681 0.000000
vt 0.509681 0.130522
vt 0.481952 0.130522
vt 0.481952 0.000000
vt 0.509681 0.261043
vt 0.481952 0.261043
vt 0.509681 0.391565
vt 0.481952 0.391565
vt 0.509681 0.522087
vt 0.481952 0.522087
vt 0.509681 0.652609
vt 0.481952 0.652609
vt 0.454224 0.975090
vt 0.454224 0.783130
vt 0.481952 0.975090
vt 0.454224 0.652609
vt 0.454224 0.522087
vt 0.454224 0.391565
vt 0.481952 0.391565
vt 0.454224 0.261043
vt 0.454224 0.130522
vt 0.454224 0.000000
vt 0.481952 0.000000
vt 0.509681 0.999627
vt 0.481952 0.999627
vt 0.454224 0.999627
s 0
usemtl lape
f 13/1/1 10/2/1 24/3/1 27/4/1
f 18/5/1 5/6/1 19/7/1 32/8/1
f 16/9/1 7/10/1 21/11/1 30/12/1
f 14/13/1 9/14/1 23/15/1 28/16/1
f 11/17/1 25/18/1 26/19/1 12/20/1
f 17/21/1 6/22/1 20/23/1 31/24/1
f 15/25/1 8/26/1 22/27/1 29/28/1
f 5/29/2 37/30/2 35/31/2 3/32/2
f 12/33/3 13/34/3 45/35/3 44/36/3
f 5/29/4 6/37/4 38/38/4 37/30/4
f 13/34/3 14/39/3 46/40/3 45/35/3
f 6/37/4 7/41/4 39/42/4 38/38/4
f 14/39/3 15/43/3 47/44/3 46/40/3
f 7/41/4 8/45/4 40/46/4 39/42/4
f 1/47/5 33/48/5 43/49/5 11/50/5
f 15/43/3 16/51/3 48/52/3 47/44/3
f 8/45/4 9/53/4 41/54/4 40/46/4
f 16/51/3 17/55/3 49/56/3 48/52/3
f 9/53/4 10/57/4 42/58/4 41/54/4
f 4/59/6 36/60/6 50/61/6 18/62/6
f 17/55/3 18/62/3 50/61/3 49/56/3
f 10/57/4 11/50/4 43/49/4 42/58/4
f 12/33/7 44/36/7 34/63/7 2/64/7
f 63/65/8 77/66/8 74/67/8 60/68/8
f 68/69/8 82/65/8 69/70/8 55/71/8
f 66/72/8 80/73/8 71/74/8 57/75/8
f 64/76/8 78/77/8 73/78/8 59/79/8
f 61/80/8 62/81/8 76/82/8 75/83/8
f 67/84/8 81/85/8 70/86/8 56/87/8
f 65/88/8 79/72/8 72/89/8 58/90/8
f 55/91/9 53/92/9 85/93/9 87/94/9
f 62/95/10 94/96/10 95/97/10 63/98/10
f 55/91/9 87/94/9 88/99/9 56/100/9
f 63/98/10 95/97/10 96/101/10 64/102/10
f 56/100/9 88/99/9 89/103/9 57/104/9
f 64/102/10 96/101/10 97/105/10 65/106/10
f 57/104/9 89/103/9 90/107/9 58/108/9
f 51/109/9 61/110/9 93/111/9 83/112/9
f 65/106/10 97/105/10 98/113/10 66/114/10
f 58/108/9 90/107/9 91/115/9 59/116/9
f 66/114/10 98/113/10 99/117/10 67/118/10
f 59/116/9 91/115/9 92/119/9 60/120/9
f 54/121/10 68/122/10 100/123/10 86/124/10
f 67/118/10 99/117/10 100/123/10 68/122/10
f 60/120/9 92/119/9 93/111/9 61/110/9
f 62/95/10 52/125/10 84/126/10 94/96/10
f 1/127/11 11/17/11 61/128/11 51/129/11
f 4/130/12 18/5/12 68/131/12 54/132/12
f 5/6/13 3/133/13 53/134/13 55/135/13
f 6/22/14 5/6/14 55/135/14 56/136/14
f 7/10/14 6/22/14 56/136/14 57/137/14
f 8/26/14 7/10/14 57/137/14 58/138/14
f 9/14/14 8/26/14 58/138/14 59/139/14
f 10/2/14 9/14/14 59/139/14 60/140/14
f 11/17/15 10/2/15 60/140/15 61/128/15
f 12/20/16 2/141/16 52/142/16 62/143/16
f 13/1/17 12/20/17 62/143/17 63/144/17
f 14/13/18 13/1/18 63/144/18 64/145/18
f 15/25/18 14/13/18 64/145/18 65/146/18
f 16/9/18 15/25/18 65/146/18 66/147/18
f 17/21/18 16/9/18 66/147/18 67/148/18
f 18/5/18 17/21/18 67/148/18 68/131/18
f 11/17/19 12/20/19 62/143/19 61/128/19
f 10/2/19 13/1/19 63/144/19 60/140/19
f 9/14/19 14/13/19 64/145/19 59/139/19
f 8/26/19 15/25/19 65/146/19 58/138/19
f 7/10/19 16/9/19 66/147/19 57/137/19
f 6/22/19 17/21/19 67/148/19 56/136/19
f 5/6/19 18/5/19 68/131/19 55/135/19
f 26/149/20 25/150/20 75/151/20 76/152/20
f 27/153/20 24/154/20 74/155/20 77/156/20
f 28/157/20 23/158/20 73/159/20 78/160/20
f 29/161/20 22/162/20 72/163/20 79/164/20
f 30/165/20 21/149/20 71/166/20 80/66/20
f 31/167/20 20/168/20 70/169/20 81/170/20
f 32/152/20 19/151/20 69/171/20 82/172/20
f 13/173/21 27/174/21 77/175/21 63/176/21
f 24/177/22 10/178/22 60/179/22 74/180/22
f 18/181/21 32/182/21 82/183/21 68/184/21
f 19/185/22 5/186/22 55/187/22 69/188/22
f 16/189/21 30/190/21 80/191/21 66/192/21
f 21/193/22 7/194/22 57/195/22 71/196/22
f 14/197/21 28/198/21 78/199/21 64/200/21
f 23/201/22 9/202/22 59/203/22 73/204/22
f 25/205/22 11/206/22 61/176/22 75/207/22
f 12/208/21 26/209/21 76/210/21 62/187/21
f 17/211/21 31/196/21 81/212/21 67/213/21
f 20/214/22 6/215/22 56/216/22 70/217/22
f 15/218/21 29/219/21 79/220/21 65/221/21
f 22/222/22 8/223/22 58/224/22 72/225/22
f 43/226/23 33/227/23 83/228/23 93/229/23
f 50/230/24 36/231/24 86/232/24 100/233/24
f 35/234/24 37/235/24 87/236/24 85/237/24
f 37/238/25 38/239/25 88/240/25 87/241/25
f 38/239/25 39/242/25 89/243/25 88/240/25
f 39/242/25 40/244/25 90/245/25 89/243/25
f 40/244/25 41/246/25 91/247/25 90/245/25
f 41/246/25 42/248/25 92/249/25 91/247/25
f 42/248/25 43/226/25 93/229/25 92/249/25
f 34/250/26 44/251/26 94/229/26 84/252/26
f 44/251/25 45/253/25 95/249/25 94/229/25
f 45/253/25 46/254/25 96/247/25 95/249/25
f 46/254/25 47/255/25 97/256/25 96/247/25
f 47/255/25 48/257/25 98/243/25 97/256/25
f 48/257/25 49/258/25 99/240/25 98/243/25
f 49/258/25 50/259/25 100/260/25 99/240/25
f 3/133/27 35/234/27 85/237/27 53/134/27
f 33/227/28 1/261/28 51/262/28 83/228/28
f 36/231/27 4/130/27 54/132/27 86/232/27
f 2/263/29 34/250/29 84/252/29 52/262/29
