# Blender v3.4.1 OBJ File: '001.blend'
# www.blender.org
mtllib 001-phone.mtl
o 立方体.012
v 0.088086 -0.721072 -0.441895
v 0.088086 0.781680 -0.441895
v 0.088087 -0.721072 0.441895
v 0.088087 0.781680 0.441895
v 0.049402 -0.721072 0.441895
v 0.049402 -0.721072 -0.441895
v 0.049402 0.781680 -0.441895
v 0.049402 0.781680 0.441895
v -0.088087 -0.772379 -0.596316
v -0.088087 -0.936101 -0.432594
v -0.088087 -0.835032 -0.583853
v -0.088087 -0.888148 -0.548363
v -0.088087 -0.923638 -0.495248
v -0.088087 0.936101 -0.432594
v -0.088087 0.772379 -0.596316
v -0.088087 0.923638 -0.495248
v -0.088087 0.888148 -0.548363
v -0.088087 0.835032 -0.583853
v -0.088086 -0.936101 0.432594
v -0.088086 -0.772379 0.596316
v -0.088086 -0.923638 0.495248
v -0.088086 -0.888148 0.548363
v -0.088086 -0.835032 0.583853
v -0.088086 0.772379 0.596316
v -0.088086 0.936101 0.432594
v -0.088086 0.835032 0.583853
v -0.088086 0.888148 0.548363
v -0.088086 0.923638 0.495248
v 0.088087 -0.772379 0.596316
v 0.088087 -0.936101 0.432594
v 0.088087 -0.820332 0.480547
v 0.088087 -0.835032 0.583853
v 0.088087 -0.888148 0.548363
v 0.088087 -0.923638 0.495248
v 0.088086 -0.936101 -0.432594
v 0.088086 -0.772379 -0.596316
v 0.088086 -0.820332 -0.480547
v 0.088086 -0.923638 -0.495248
v 0.088086 -0.888148 -0.548363
v 0.088086 -0.835032 -0.583853
v 0.088086 0.772379 -0.596316
v 0.088086 0.936101 -0.432594
v 0.088086 0.820332 -0.480547
v 0.088086 0.835032 -0.583853
v 0.088086 0.888148 -0.548363
v 0.088086 0.923638 -0.495248
v 0.088087 0.936101 0.432594
v 0.088087 0.772379 0.596316
v 0.088087 0.820332 0.480547
v 0.088087 0.923638 0.495248
v 0.088087 0.888148 0.548363
v 0.088087 0.835032 0.583853
vt 0.485749 0.600073
vt 0.436857 0.392742
vt 0.436857 0.392742
vt 0.485749 0.600073
vt 0.599436 0.371177
vt 0.426517 0.379991
vt 0.431572 0.362848
vt 0.590729 0.341737
vt 0.603317 0.356539
vt 0.626174 0.360330
vt 0.676432 0.573457
vt 0.676432 0.573457
vt 0.626174 0.360330
vt 0.492484 0.621152
vt 0.492484 0.621152
vt 0.651641 0.600040
vt 0.651641 0.600040
vt 0.539300 0.380235
vt 0.537677 0.382251
vt 0.537205 0.384579
vt 0.537957 0.386865
vt 0.539819 0.388762
vt 0.595901 0.427151
vt 0.598589 0.428369
vt 0.601693 0.428722
vt 0.604742 0.428158
vt 0.607270 0.426762
vt 0.635938 0.403204
vt 0.637562 0.401188
vt 0.638033 0.398860
vt 0.637281 0.396574
vt 0.635419 0.394677
vt 0.579337 0.356288
vt 0.576649 0.355070
vt 0.573545 0.354717
vt 0.570497 0.355281
vt 0.567968 0.356677
vt 0.406781 0.389432
vt 0.457039 0.602558
vt 0.457039 0.602558
vt 0.406781 0.389432
vt 0.479896 0.606349
vt 0.648328 0.578508
vt 0.656696 0.582898
vt 0.599436 0.371177
vt 0.648328 0.578508
vt 0.407035 0.380483
vt 0.411835 0.372289
vt 0.420452 0.366097
vt 0.602660 0.341927
vt 0.613586 0.345528
vt 0.621843 0.351990
vt 0.676178 0.582405
vt 0.671377 0.590599
vt 0.662761 0.596792
vt 0.480553 0.620961
vt 0.469627 0.617360
vt 0.461370 0.610899
vt 0.431572 0.362848
vt 0.420452 0.366097
vt 0.411835 0.372289
vt 0.407035 0.380483
vt 0.480553 0.620961
vt 0.469627 0.617360
vt 0.461370 0.610899
vt 0.590729 0.341737
vt 0.602660 0.341927
vt 0.613586 0.345528
vt 0.621843 0.351990
vt 0.662761 0.596792
vt 0.671377 0.590599
vt 0.676178 0.582405
vn 0.9045 -0.3015 -0.3015
vn 0.9045 0.3015 -0.3015
vn 0.5774 0.5774 -0.5774
vn 0.5774 -0.5774 -0.5774
vn 0.9045 0.3015 0.3015
vn 1.0000 -0.0000 -0.0000
vn 0.6857 -0.7244 0.0713
vn 0.6857 -0.7244 -0.0713
vn -0.6857 -0.0713 -0.7244
vn -0.6857 0.0713 -0.7244
vn 0.6857 0.0713 -0.7244
vn 0.6857 -0.0713 -0.7244
vn -0.6857 0.7244 0.0713
vn 0.6857 0.7244 0.0713
vn 0.6857 0.7244 -0.0713
vn -0.6857 0.7244 -0.0713
vn -0.6857 -0.7244 0.0713
vn -0.6657 -0.6894 0.2856
vn -0.6657 -0.5276 0.5276
vn -0.6657 -0.2856 0.6894
vn -0.6857 -0.0713 0.7244
vn -0.6857 0.0713 0.7244
vn -0.6657 0.2856 0.6894
vn -0.6657 0.5276 0.5276
vn -0.6657 0.6894 0.2856
vn -0.6657 0.6894 -0.2856
vn -0.6657 0.5276 -0.5276
vn -0.6657 0.2856 -0.6894
vn -0.6657 -0.2856 -0.6894
vn -0.6657 -0.5276 -0.5276
vn -0.6657 -0.6894 -0.2856
vn -0.6857 -0.7244 -0.0713
vn 0.6857 -0.0713 0.7244
vn 0.6857 0.0713 0.7244
vn 0.9045 -0.3015 0.3015
vn 0.5774 0.5774 0.5774
vn 0.5774 -0.5774 0.5774
vn 0.6657 -0.2856 0.6894
vn 0.6657 -0.5276 0.5276
vn 0.6657 -0.6894 0.2856
vn 0.6657 -0.6894 -0.2856
vn 0.6657 -0.5276 -0.5276
vn 0.6657 -0.2856 -0.6894
vn 0.6657 0.2856 -0.6894
vn 0.6657 0.5276 -0.5276
vn 0.6657 0.6894 -0.2856
vn 0.6657 0.6894 0.2856
vn 0.6657 0.5276 0.5276
vn 0.6657 0.2856 0.6894
usemtl phone
s 1
f 4/1/1 3/2/2 5/3/3 8/4/4
f 1/5/5 3/2/2 31/6/6 30/7/7 35/8/8 37/9/6
f 9/10/9 15/11/10 41/12/11 36/13/12
f 25/14/13 47/15/14 42/16/15 14/17/16
f 19/18/17 21/19/18 22/20/19 23/21/20 20/22/21 24/23/22 26/24/23 27/25/24 28/26/25 25/27/13 14/28/16 16/29/26 17/30/27 18/31/28 15/32/10 9/33/9 11/34/29 12/35/30 13/36/31 10/37/32
f 29/38/33 48/39/34 24/40/22 20/41/21
f 3/2/2 4/1/1 49/42/6 48/39/34 29/38/33 31/6/6
f 4/1/1 2/43/35 43/44/6 42/16/15 47/15/14 49/42/6
f 2/43/35 1/5/5 37/9/6 36/13/12 41/12/11 43/44/6
f 6/45/36 7/46/37 8/4/4 5/3/3
f 1/5/5 2/43/35 7/46/37 6/45/36
f 2/43/35 4/1/1 8/4/4 7/46/37
f 3/2/2 1/5/5 6/45/36 5/3/3
f 29/38/33 32/47/38 31/6/6
f 32/47/38 33/48/39 31/6/6
f 33/48/39 34/49/40 31/6/6
f 34/49/40 30/7/7 31/6/6
f 35/8/8 38/50/41 37/9/6
f 38/50/41 39/51/42 37/9/6
f 39/51/42 40/52/43 37/9/6
f 40/52/43 36/13/12 37/9/6
f 41/12/11 44/53/44 43/44/6
f 44/53/44 45/54/45 43/44/6
f 45/54/45 46/55/46 43/44/6
f 46/55/46 42/16/15 43/44/6
f 47/15/14 50/56/47 49/42/6
f 50/56/47 51/57/48 49/42/6
f 51/57/48 52/58/49 49/42/6
f 52/58/49 48/39/34 49/42/6
f 19/59/17 30/7/7 34/49/40 21/60/18
f 21/60/18 34/49/40 33/48/39 22/61/19
f 22/61/19 33/48/39 32/47/38 23/62/20
f 23/62/20 32/47/38 29/38/33 20/41/21
f 47/15/14 25/14/13 28/63/25 50/56/47
f 50/56/47 28/63/25 27/64/24 51/57/48
f 51/57/48 27/64/24 26/65/23 52/58/49
f 52/58/49 26/65/23 24/40/22 48/39/34
f 35/8/8 10/66/32 13/67/31 38/50/41
f 38/50/41 13/67/31 12/68/30 39/51/42
f 39/51/42 12/68/30 11/69/29 40/52/43
f 40/52/43 11/69/29 9/10/9 36/13/12
f 14/17/16 42/16/15 46/55/46 16/70/26
f 16/70/26 46/55/46 45/54/45 17/71/27
f 17/71/27 45/54/45 44/53/44 18/72/28
f 18/72/28 44/53/44 41/12/11 15/11/10
f 30/7/7 19/59/17 10/66/32 35/8/8
