# Blender 4.0.1
# www.blender.org
mtllib balcony.mtl
o å¹³é¢.023
v 1.456012 -1.743077 -2.733751
v -2.055163 -1.743077 -2.733750
v 1.456013 -1.743077 2.738011
v -2.055163 -1.743077 2.738011
v 1.040225 1.548348 -2.681144
v 1.040225 1.220080 -2.681144
v 1.040226 1.548348 2.725283
v 1.040226 1.220080 2.725283
v -1.306449 1.477692 -2.681143
v -1.306449 1.290737 -2.681143
v -1.306449 1.477692 2.725284
v -1.306449 1.290737 2.725284
v -1.311691 1.495073 -2.726917
v -1.311691 -1.720077 -2.726917
v -1.311690 1.495073 2.731178
v -1.311690 -1.720077 2.731178
v -1.377611 1.495073 2.731178
v -1.377612 1.495073 -2.726917
v -1.377612 -1.720077 -2.726917
v -1.377611 -1.720077 2.731178
v 0.960218 -1.685071 0.538371
v 0.960218 1.339377 0.817289
v 0.960218 -1.713492 0.846549
v 0.960218 1.310956 1.125467
v 0.896021 -1.685071 0.538371
v 0.896021 1.339377 0.817289
v 0.896021 -1.713492 0.846549
v 0.896021 1.310956 1.125467
v 0.960218 -1.740593 1.915923
v 0.960218 1.306178 1.915923
v 0.960218 -1.740593 2.402453
v 0.960218 1.306178 2.402453
v 0.896021 -1.740593 1.915923
v 0.896021 1.306178 1.915923
v 0.896021 -1.740593 2.402453
v 0.896021 1.306178 2.402453
v 0.960217 -1.733417 -2.288823
v 0.960217 1.312688 -2.225140
v 0.960217 -1.747103 -1.634194
v 0.960217 1.299002 -1.570511
v 0.896021 -1.733417 -2.288823
v 0.896021 1.312688 -2.225140
v 0.896021 -1.747103 -1.634194
v 0.896021 1.299002 -1.570511
v 0.953018 -1.746536 -0.789731
v 0.952990 1.294786 -0.971864
v 0.967366 -1.729392 -0.503468
v 0.967337 1.311929 -0.685601
v 0.888901 -1.746344 -0.786529
v 0.888873 1.294977 -0.968662
v 0.903248 -1.729201 -0.500266
v 0.903221 1.312120 -0.682399
vn -0.0000 1.0000 -0.0000
vn 1.0000 -0.0000 -0.0000
vn -0.0000 -0.0000 1.0000
vn -1.0000 -0.0000 -0.0000
vn -0.0000 -0.0000 -1.0000
vn -0.0301 0.9995 -0.0000
vn -0.0301 -0.9995 -0.0000
vn -0.0000 -1.0000 -0.0000
vn -0.0000 -0.0918 0.9958
vn -0.0000 0.0918 -0.9958
vn -0.0000 -0.9958 -0.0918
vn -0.0000 0.9958 0.0918
vn -0.0000 -0.0209 0.9998
vn -0.0000 0.0209 -0.9998
vn -0.0000 -0.9998 -0.0209
vn -0.0000 0.9998 0.0209
vn 0.9988 -0.0030 -0.0499
vn 0.0500 0.0597 0.9970
vn -0.9988 0.0030 0.0499
vn -0.0500 -0.0597 -0.9970
vn -0.0000 -0.9982 0.0598
vn -0.0000 0.9982 -0.0598
vt 0.128923 0.330215
vt 0.160119 0.263922
vt 0.228748 0.295118
vt 0.197552 0.361411
vt 0.197407 0.465005
vt 0.046703 0.416915
vt 0.048612 0.411855
vt 0.199037 0.459784
vt 0.065365 0.423700
vt 0.066934 0.419449
vt 0.191540 0.463971
vt 0.192913 0.459608
vt 0.117680 0.334823
vt 0.093662 0.408202
vt 0.111032 0.411421
vt 0.130137 0.336433
vt 0.146296 0.336811
vt 0.117657 0.423179
vt 0.108501 0.420436
vt 0.137392 0.334236
vt 0.108905 0.420573
vt 0.137636 0.334808
vt 0.118013 0.423302
vt 0.146495 0.337370
vt 0.109368 0.325275
vt 0.080997 0.420571
vt 0.065088 0.416549
vt 0.093925 0.321481
vt 0.065740 0.416776
vt 0.094411 0.322183
vt 0.081566 0.420777
vt 0.109775 0.325958
vt 0.219116 0.361119
vt 0.196772 0.451125
vt 0.176395 0.445817
vt 0.199684 0.356299
vt 0.176349 0.445744
vt 0.199454 0.356944
vt 0.196554 0.451007
vt 0.218730 0.361728
vt 0.166485 0.343057
vt 0.149601 0.443707
vt 0.139666 0.442113
vt 0.156877 0.341444
vt 0.139683 0.442186
vt 0.156805 0.342029
vt 0.149566 0.443772
vt 0.166364 0.343633
s 0
usemtl mango
f 1/1/1 2/2/1 4/3/1 3/4/1
f 5/5/2 7/6/2 8/7/2 6/8/2
f 7/6/3 11/9/3 12/10/3 8/7/3
f 11/9/4 9/11/4 10/12/4 12/10/4
f 9/11/5 5/5/5 6/8/5 10/12/5
f 7/6/6 5/5/6 9/11/6 11/9/6
f 12/10/7 10/12/7 6/8/7 8/7/7
f 13/13/2 15/14/2 16/15/2 14/16/2
f 18/13/4 19/16/4 20/15/4 17/14/4
f 14/16/8 16/15/8 20/15/8 19/16/8
f 15/14/1 13/13/1 18/13/1 17/14/1
f 16/15/3 15/14/3 17/14/3 20/15/3
f 13/13/5 14/16/5 19/16/5 18/13/5
f 21/17/2 22/18/2 24/19/2 23/20/2
f 23/20/9 24/19/9 28/21/9 27/22/9
f 27/22/4 28/21/4 26/23/4 25/24/4
f 25/24/10 26/23/10 22/18/10 21/17/10
f 23/20/11 27/22/11 25/24/11 21/17/11
f 28/21/12 24/19/12 22/18/12 26/23/12
f 29/25/2 30/26/2 32/27/2 31/28/2
f 31/28/3 32/27/3 36/29/3 35/30/3
f 35/30/4 36/29/4 34/31/4 33/32/4
f 33/32/5 34/31/5 30/26/5 29/25/5
f 31/28/8 35/30/8 33/32/8 29/25/8
f 36/29/1 32/27/1 30/26/1 34/31/1
f 37/33/2 38/34/2 40/35/2 39/36/2
f 39/36/13 40/35/13 44/37/13 43/38/13
f 43/38/4 44/37/4 42/39/4 41/40/4
f 41/40/14 42/39/14 38/34/14 37/33/14
f 39/36/15 43/38/15 41/40/15 37/33/15
f 44/37/16 40/35/16 38/34/16 42/39/16
f 45/41/17 46/42/17 48/43/17 47/44/17
f 47/44/18 48/43/18 52/45/18 51/46/18
f 51/46/19 52/45/19 50/47/19 49/48/19
f 49/48/20 50/47/20 46/42/20 45/41/20
f 47/44/21 51/46/21 49/48/21 45/41/21
f 52/45/22 48/43/22 46/42/22 50/47/22
