# Blender 4.0.1
# www.blender.org
mtllib mango.mtl
o èçƒ.005
v -1.091049 0.004526 -0.599131
v -1.130380 -0.118550 -0.497052
v -1.023473 -0.277980 -0.627848
v -1.122227 -0.546793 -0.194058
v -0.830601 -0.994901 -0.571485
v -0.837557 -0.935215 -0.603724
v -0.938753 -1.006093 0.075369
v -0.641215 -1.492159 -0.344010
v -0.622952 -1.513968 -0.369305
v -0.812391 -1.016107 -0.590149
v -0.598940 -1.558732 -0.328739
v -0.175418 -2.027746 -0.401617
v 0.118973 -2.201975 -0.939106
v -0.089280 -1.863060 -1.189212
v 0.730199 -2.354881 -1.509244
v 0.487694 -1.940155 -1.748029
v 0.275562 -1.442907 -1.470950
v -0.281176 -1.387559 -1.079013
v 0.029394 -0.754982 -1.120938
v -0.494500 -0.709048 -0.967542
v -0.082232 -0.386033 -1.078217
v -0.587399 -0.368908 -0.957608
v -0.772265 -0.540466 -0.829860
v 0.308924 -0.624104 -1.149889
v -0.297819 0.438931 -1.144952
v -0.760201 0.357516 -0.972618
v -0.302579 0.458862 -1.146508
v -0.764010 0.375292 -0.972516
v -0.776167 0.367224 -0.962691
v -0.284479 0.454736 -1.147378
v -0.412921 1.052687 -1.105321
v -0.088995 1.003694 -1.135281
v -0.425478 1.512314 -0.871458
v -0.100621 1.487001 -0.919839
v 0.173043 1.397820 -0.895558
v 0.201831 0.848993 -1.090119
v 0.617431 0.464383 -0.956136
v 0.547677 1.121520 -0.795120
v 1.002969 0.509381 -0.531368
v 1.151352 -0.224250 -0.820174
v 1.325187 -0.153841 -0.227785
v 1.526608 -0.903862 -0.710476
v 1.452502 -0.745498 0.165107
v 1.653942 -1.512133 -0.408307
v 1.346406 -1.044513 0.502633
v 1.537661 -1.794952 -0.082513
v 1.344156 -1.893383 0.184308
v 1.151195 -1.173268 0.747666
v 0.811367 -1.233360 1.006485
v 1.013124 -1.902847 0.476821
v 0.332198 -1.728040 0.770684
v 0.139310 -1.140947 1.250682
v -0.104858 -1.527980 0.826050
v -0.276916 -0.984065 1.271764
v -0.583165 -0.809327 1.219465
v -0.433814 -1.321636 0.803401
v -0.799294 -0.999554 0.687741
v -0.915862 -0.524892 1.069043
v -1.122677 -0.542418 0.434388
v -1.196006 -0.110449 0.778161
v -1.273841 -0.121574 0.133667
v -1.315589 0.291685 0.454469
v -1.288988 0.287135 -0.208869
v -1.316369 0.712487 0.094555
v -1.225301 1.003383 -0.188308
v -1.198690 0.573107 -0.471683
v -1.073687 0.756647 -0.663079
v -1.098499 1.191767 -0.396407
v -0.883436 1.373759 -0.624726
v -0.862962 0.930739 -0.876287
v -0.807570 1.715420 -0.213634
v -0.820023 1.706672 -0.201285
v -0.336328 1.857585 -0.473068
v -0.332001 1.865418 -0.459921
v -0.803598 1.723428 -0.200022
v -0.116524 2.073359 0.090228
v -0.605873 1.939788 0.362430
v -0.793888 1.735359 0.638220
v -1.067133 1.399175 0.511053
v -1.137778 1.322423 0.267884
v -0.890638 1.341057 1.061689
v -0.891379 1.284220 1.114264
v -1.206747 0.759267 0.790770
v -1.179008 1.193491 0.400951
v -0.790349 0.844251 1.470822
v -1.104929 0.334232 1.120581
v -0.762531 0.788799 1.510928
v -0.732967 0.109092 1.565378
v -0.838669 -0.074598 1.428809
v -0.711405 -0.187114 1.511033
v -0.446303 0.420549 1.759613
v -0.768706 0.869131 1.485573
v -0.145997 1.343653 1.636874
v -0.118817 0.635903 1.825271
v -0.870286 1.309442 1.127094
v -0.272506 1.782622 1.228378
v 0.392493 1.467791 1.397600
v 0.246760 1.905741 0.960896
v -0.498101 1.958049 0.637918
v 0.000766 2.087762 0.363621
v 0.639707 1.729064 0.318855
v 0.668939 1.696771 0.389806
v 0.228874 2.007056 0.089280
v 0.680460 1.680524 0.364519
v 0.844046 1.235114 0.797677
v 0.831312 1.253713 0.825386
v 0.844825 1.168944 0.861047
v 0.702377 0.668142 1.352311
v 0.439928 0.764254 1.627877
v 0.442883 0.409385 1.639471
v -0.121584 0.291440 1.826967
v 0.546285 -0.450186 1.430403
v -0.061989 -0.460372 1.646243
v 0.552082 -0.473121 1.421889
v -0.057819 -0.480260 1.638145
v -0.078677 -0.475165 1.638853
v 0.569932 -0.467321 1.408667
v 0.947136 0.333471 0.933233
v 1.036374 -0.101590 0.865985
v 1.071913 0.640606 0.226528
v 1.090664 0.055938 0.701920
v 0.849452 1.206384 -0.136928
v 0.397015 1.798331 -0.240180
v -0.318461 1.857821 -0.477209
v 0.301595 1.728209 -0.471557
v 0.454937 1.642813 -0.412024
v -0.396809 -1.671322 0.316769
v -0.560389 -1.512928 0.280517
v -0.439544 -1.725314 0.098006
v 0.330780 -2.154925 0.186908
v 0.350913 -2.173771 0.155651
v 0.209290 -2.273341 -0.661565
v 0.353104 -2.165796 0.177083
v 0.996004 -2.359554 -0.323970
v 0.993431 -2.367298 -0.351139
v 1.014665 -2.361030 -0.346013
v 1.497629 -2.217925 -0.980283
v 1.425974 -2.248558 -1.303501
v 1.095410 -2.373152 -1.504719
v 0.834287 -2.453094 -1.228439
v 1.551560 -2.090844 -1.101101
v 1.498695 -1.496171 -1.272778
v 1.172109 -1.851424 -1.720906
v 1.182619 -1.928031 -1.720560
v 1.159808 -0.824344 -1.172411
v 0.899333 -1.242672 -1.484226
v 0.600320 -0.135279 -1.076332
v 0.531731 -0.345173 -1.115147
v 0.841319 -1.165810 -1.432532
v 0.402656 0.057535 -1.091236
v 0.879222 -1.256908 -1.494865
v 1.148803 -1.861416 -1.734705
vn -0.7812 -0.1618 -0.6029
vn -0.9108 -0.1771 -0.3729
vn -0.8006 -0.0937 -0.5918
vn -0.7988 -0.2402 -0.5515
vn -0.8755 -0.3762 -0.3034
vn -0.9311 -0.3163 -0.1819
vn -0.8565 -0.5071 -0.0964
vn -0.8797 -0.4745 0.0314
vn -0.8138 -0.3181 -0.4863
vn -0.8190 -0.5043 -0.2737
vn -0.7939 -0.6052 -0.0590
vn -0.7342 -0.4107 -0.5407
vn -0.5706 -0.7844 -0.2431
vn -0.5924 -0.8027 0.0685
vn -0.3597 -0.2151 -0.9080
vn -0.2432 -0.7815 -0.5746
vn -0.6907 -0.1149 -0.7140
vn -0.3733 0.2387 -0.8965
vn -0.4878 -0.0739 -0.8698
vn -0.2689 0.1662 -0.9487
vn -0.4350 -0.0820 -0.8967
vn -0.1612 -0.0092 -0.9869
vn -0.6280 -0.1753 -0.7582
vn -0.1496 0.2264 -0.9625
vn -0.4773 -0.1392 -0.8677
vn -0.1522 -0.0990 -0.9834
vn -0.5200 -0.0437 -0.8531
vn -0.2281 -0.0204 -0.9734
vn -0.6859 -0.0817 -0.7231
vn 0.0072 -0.0203 -0.9998
vn 0.0814 0.2341 -0.9688
vn -0.2796 0.2558 -0.9254
vn 0.1055 0.6129 -0.7831
vn -0.2952 0.6098 -0.7355
vn 0.3009 0.1858 -0.9354
vn 0.3799 0.5312 -0.7573
vn 0.6502 0.3974 -0.6475
vn 0.5214 0.2526 -0.8151
vn 0.7209 0.3673 -0.5877
vn 0.8407 0.3576 -0.4065
vn 0.9254 0.2867 -0.2479
vn 0.9497 0.3074 -0.0596
vn 0.9976 -0.0151 0.0672
vn 0.9594 0.1573 0.2343
vn 0.8673 -0.3771 0.3248
vn 0.8722 -0.0279 0.4883
vn 0.7202 -0.1920 0.6667
vn 0.6624 -0.5566 0.5014
vn 0.3604 -0.6687 0.6504
vn 0.4338 -0.4072 0.8037
vn 0.0319 -0.5586 0.8288
vn -0.0325 -0.7228 0.6903
vn -0.3244 -0.5807 0.7467
vn -0.3496 -0.7182 0.6016
vn -0.5625 -0.6548 0.5048
vn -0.5458 -0.5262 0.6522
vn -0.7838 -0.4061 0.4699
vn -0.7714 -0.5375 0.3407
vn -0.9273 -0.2199 0.3030
vn -0.9120 -0.3806 0.1529
vn -0.9903 -0.0349 0.1343
vn -0.9774 -0.2082 -0.0359
vn -0.9918 0.1237 -0.0323
vn -0.9732 -0.0580 -0.2223
vn -0.8996 0.0471 -0.4341
vn -0.9382 0.2804 -0.2029
vn -0.8567 0.3865 -0.3416
vn -0.8138 0.1127 -0.5701
vn -0.6264 0.1946 -0.7548
vn -0.6636 0.5082 -0.5490
vn -0.7848 0.6021 -0.1467
vn -0.6130 0.7080 -0.3507
vn -0.2846 0.8120 -0.5095
vn -0.5865 0.7919 -0.1702
vn -0.1643 0.9154 -0.3676
vn -0.5074 0.8617 -0.0058
vn -0.0645 0.9778 -0.1995
vn -0.8772 0.4799 -0.0133
vn -0.8463 0.5027 0.1764
vn -0.6984 0.6732 0.2427
vn -0.7557 0.5163 0.4030
vn -0.9412 0.3030 0.1495
vn -0.9313 0.1719 0.3210
vn -0.8249 0.3202 0.4658
vn -0.8752 -0.0076 0.4837
vn -0.7723 0.1840 0.6081
vn -0.7513 -0.2031 0.6279
vn -0.5794 -0.1037 0.8084
vn -0.6027 0.1351 0.7865
vn -0.5076 -0.3345 0.7940
vn -0.3937 0.0190 0.9191
vn -0.0036 0.1640 0.9864
vn -0.0988 0.4763 0.8737
vn -0.5798 0.3041 0.7558
vn -0.2277 0.7717 0.5938
vn -0.6562 0.4844 0.5786
vn 0.3532 0.8512 0.3882
vn 0.5157 0.5308 0.6725
vn 0.1172 0.9881 0.0996
vn -0.3651 0.8905 0.2714
vn 0.7347 0.6667 0.1255
vn 0.6781 0.7305 -0.0811
vn 0.3968 0.9051 -0.1529
vn 0.8711 0.4896 -0.0392
vn 0.8492 0.4250 0.3135
vn 0.9389 0.3169 0.1343
vn 0.8955 0.2384 0.3758
vn 0.5523 0.1792 0.8141
vn 0.8227 0.1228 0.5551
vn 0.5589 -0.0492 0.8278
vn 0.0235 -0.1279 0.9915
vn 0.0431 -0.2684 0.9623
vn 0.5437 -0.1647 0.8229
vn 0.0903 -0.4182 0.9039
vn 0.4627 -0.2666 0.8455
vn -0.2430 -0.4024 0.8826
vn 0.7026 -0.1043 0.7039
vn 0.8445 0.0529 0.5329
vn 0.8770 0.0816 0.4735
vn 0.9328 0.1763 0.3144
vn 0.9577 0.2854 0.0372
vn 0.8776 0.4241 -0.2233
vn 0.5350 0.7721 -0.3430
vn 0.3762 0.7590 -0.5314
vn 0.0765 0.8385 -0.5395
vn 0.6885 0.5734 -0.4440
vn -0.7642 -0.5958 0.2468
vn -0.5584 -0.7419 0.3711
vn -0.6318 -0.7472 0.2062
vn -0.3786 -0.9240 0.0526
vn -0.2743 -0.9293 0.2472
vn -0.3991 -0.8256 0.3989
vn -0.1080 -0.8823 0.4581
vn 0.0836 -0.9844 0.1545
vn 0.1847 -0.9004 0.3939
vn 0.4195 -0.8775 0.2325
vn -0.0382 -0.9966 -0.0724
vn 0.2687 -0.8010 -0.5350
vn 0.7029 -0.6245 -0.3404
vn 0.7064 -0.7050 0.0631
vn 0.9531 -0.2082 -0.2198
vn 0.4857 -0.3000 -0.8211
vn 0.5721 0.2030 -0.7947
vn 0.8186 0.2198 -0.5306
vn 0.2323 0.5054 -0.8310
vn 0.5128 0.4047 -0.7572
vn -0.0479 0.4737 -0.8794
vn 0.0400 0.2369 -0.9707
vn 0.3136 0.2401 -0.9187
vn 0.1703 0.0641 -0.9833
vn 0.1842 0.0629 -0.9809
vn 0.0104 0.4753 -0.8798
vt 0.375504 0.408113
vt 0.351894 0.425479
vt 0.364951 0.444700
vt 0.383428 0.320033
vt 0.379531 0.311072
vt 0.316973 0.361210
vt 0.358889 0.240022
vt 0.293470 0.296314
vt 0.382844 0.308896
vt 0.362415 0.237581
vt 0.357607 0.230623
vt 0.517004 0.180965
vt 0.407974 0.140392
vt 0.360249 0.163238
vt 0.605893 0.155765
vt 0.524289 0.082882
vt 0.459464 0.274415
vt 0.577510 0.224099
vt 0.453541 0.370852
vt 0.485732 0.364059
vt 0.445029 0.414458
vt 0.478515 0.423614
vt 0.418590 0.382999
vt 0.487589 0.381817
vt 0.415086 0.502262
vt 0.421070 0.514069
vt 0.414139 0.504365
vt 0.420002 0.516354
vt 0.412847 0.503035
vt 0.420564 0.515988
vt 0.410587 0.639013
vt 0.404140 0.644288
vt 0.364811 0.709531
vt 0.358073 0.712074
vt 0.412621 0.619811
vt 0.364008 0.697480
vt 0.351649 0.589528
vt 0.407905 0.514980
vt 0.402887 0.420527
vt 0.336592 0.506504
vt 0.391561 0.323016
vt 0.312729 0.413823
vt 0.364571 0.236709
vt 0.276416 0.329367
vt 0.330037 0.194309
vt 0.241599 0.284957
vt 0.214199 0.264321
vt 0.300061 0.177651
vt 0.255537 0.140006
vt 0.183427 0.252494
vt 0.127402 0.256861
vt 0.185964 0.188286
vt 0.120980 0.277141
vt 0.174248 0.213724
vt 0.210604 0.243876
vt 0.132901 0.307642
vt 0.159008 0.344525
vt 0.217236 0.287941
vt 0.186287 0.403263
vt 0.237760 0.351841
vt 0.217603 0.460814
vt 0.265198 0.411680
vt 0.252040 0.521519
vt 0.299420 0.471222
vt 0.327755 0.513980
vt 0.279323 0.564250
vt 0.300019 0.592313
vt 0.349061 0.541879
vt 0.373116 0.568762
vt 0.323701 0.619754
vt 0.291139 0.690110
vt 0.292353 0.691494
vt 0.309940 0.732413
vt 0.290588 0.692283
vt 0.308151 0.733229
vt 0.222106 0.708839
vt 0.234109 0.730137
vt 0.220622 0.596798
vt 0.192490 0.601331
vt 0.159112 0.664798
vt 0.105314 0.589395
vt 0.208393 0.577395
vt 0.172011 0.514060
vt 0.100519 0.581034
vt 0.139312 0.454285
vt 0.094739 0.510651
vt 0.107101 0.397441
vt 0.088659 0.418311
vt 0.090531 0.503054
vt 0.098493 0.381786
vt 0.062552 0.453677
vt 0.051846 0.479437
vt 0.039002 0.578025
vt 0.092836 0.513422
vt 0.076616 0.642661
vt 0.098727 0.583920
vt 0.115183 0.681574
vt 0.058725 0.600909
vt 0.202537 0.726419
vt 0.153004 0.694147
vt 0.193900 0.644856
vt 0.201447 0.650432
vt 0.234973 0.721878
vt 0.197140 0.643263
vt 0.152671 0.579001
vt 0.156136 0.577199
vt 0.150122 0.567437
vt 0.070170 0.500305
vt 0.101881 0.494111
vt 0.072345 0.456031
vt 0.053824 0.437130
vt 0.079103 0.345688
vt 0.112051 0.349036
vt 0.080512 0.343204
vt 0.113637 0.346152
vt 0.080339 0.343857
vt 0.115141 0.347115
vt 0.173890 0.403416
vt 0.155904 0.459349
vt 0.190523 0.426604
vt 0.235633 0.510640
vt 0.267261 0.590488
vt 0.292357 0.703430
vt 0.312811 0.715478
vt 0.310438 0.732514
vt 0.307473 0.703363
vt 0.280131 0.226611
vt 0.279430 0.205251
vt 0.307584 0.201333
vt 0.381680 0.098257
vt 0.293063 0.116718
vt 0.289794 0.119123
vt 0.290858 0.117687
vt 0.357849 0.085632
vt 0.355196 0.086582
vt 0.357576 0.086572
vt 0.498249 0.067974
vt 0.536520 0.084844
vt 0.523715 0.103889
vt 0.488478 0.105165
vt 0.502515 0.124468
vt 0.615573 0.160207
vt 0.616774 0.171627
vt 0.464866 0.249774
vt 0.580909 0.251212
vt 0.465442 0.350366
vt 0.579521 0.263809
vt 0.475834 0.426324
vt 0.437723 0.444063
vt 0.435234 0.469280
vt 0.617755 0.170183
vt 0.582004 0.249355
s 1
usemtl mango
f 3/1/1 2/2/2 1/3/3
f 3/1/1 6/4/4 5/5/5 4/6/6
f 2/2/2 3/1/1 4/6/6
f 4/6/6 5/5/5 8/7/7 7/8/8
f 5/5/5 10/9/9 9/10/10 8/7/7
f 8/7/7 9/10/10 11/11/11
f 14/12/12 13/13/13 12/14/14 11/11/11
f 9/10/10 14/12/12 11/11/11
f 13/13/13 14/12/12 16/15/15 15/16/16
f 14/12/12 18/17/17 17/18/18 16/15/15
f 18/17/17 20/19/19 19/20/20 17/18/18
f 19/20/20 20/19/19 22/21/21 21/22/22
f 20/19/19 23/23/23 22/21/21
f 24/24/24 19/20/20 21/22/22
f 22/21/21 26/25/25 25/26/26 21/22/22
f 25/26/26 26/25/25 28/27/27 27/28/28
f 26/25/25 29/29/29 28/27/27
f 30/30/30 25/26/26 27/28/28
f 32/31/31 30/30/30 27/28/28 31/32/32
f 34/33/33 32/31/31 31/32/32 33/34/34
f 36/35/35 32/31/31 34/33/33 35/36/36
f 38/37/37 37/38/38 36/35/35 35/36/36
f 40/39/39 37/38/38 38/37/37 39/40/40
f 42/41/41 40/39/39 39/40/40 41/42/42
f 44/43/43 42/41/41 41/42/42 43/44/44
f 46/45/45 44/43/43 43/44/44 45/46/46
f 48/47/47 47/48/48 46/45/45 45/46/46
f 50/49/49 47/48/48 48/47/47 49/50/50
f 52/51/51 51/52/52 50/49/49 49/50/50
f 54/53/53 53/54/54 51/52/52 52/51/51
f 56/55/55 53/54/54 54/53/53 55/56/56
f 58/57/57 57/58/58 56/55/55 55/56/56
f 60/59/59 59/60/60 57/58/58 58/57/57
f 62/61/61 61/62/62 59/60/60 60/59/59
f 64/63/63 63/64/64 61/62/62 62/61/61
f 66/65/65 63/64/64 64/63/63 65/66/66
f 68/67/67 67/68/68 66/65/65 65/66/66
f 70/69/69 67/68/68 68/67/67 69/70/70
f 69/70/70 68/67/67 72/71/71 71/72/72
f 33/34/34 69/70/70 71/72/72 73/73/73
f 71/72/72 75/74/74 74/75/75 73/73/73
f 74/75/75 75/74/74 77/76/76 76/77/77
f 80/78/78 79/79/79 78/80/80 77/76/76
f 75/74/74 72/71/71 80/78/78 77/76/76
f 78/80/80 79/79/79 81/81/81
f 84/82/82 83/83/83 82/84/84 81/81/81
f 79/79/79 84/82/82 81/81/81
f 82/84/84 83/83/83 86/85/85 85/86/86
f 86/85/85 89/87/87 88/88/88 87/89/89
f 85/86/86 86/85/85 87/89/89
f 88/88/88 89/87/87 90/90/90
f 88/88/88 91/91/91 87/89/89
f 94/92/92 93/93/93 92/94/94 87/89/89
f 91/91/91 94/92/92 87/89/89
f 96/95/95 95/96/96 92/94/94 93/93/93
f 98/97/97 96/95/95 93/93/93 97/98/98
f 100/99/99 99/100/100 96/95/95 98/97/97
f 100/99/99 98/97/97 102/101/101 101/102/102
f 103/103/103 100/99/99 101/102/102
f 100/99/99 103/103/103 76/77/77
f 102/101/101 104/104/104 101/102/102
f 104/104/104 102/101/101 106/105/105 105/106/106
f 105/106/106 106/105/105 107/107/107
f 97/98/98 109/108/108 108/109/109 107/107/107
f 106/105/105 97/98/98 107/107/107
f 108/109/109 109/108/108 110/110/110
f 109/108/108 94/92/92 111/111/111 110/110/110
f 111/111/111 113/112/112 112/113/113 110/110/110
f 112/113/113 113/112/112 115/114/114 114/115/115
f 113/112/112 116/116/116 115/114/114
f 117/117/117 112/113/113 114/115/115
f 119/118/118 118/119/119 108/109/109 110/110/110
f 112/113/113 117/117/117 119/118/118 110/110/110
f 108/109/109 118/119/119 107/107/107
f 121/120/120 120/121/121 105/106/106 107/107/107
f 118/119/119 121/120/120 107/107/107
f 120/121/121 122/122/122 104/104/104 105/106/106
f 123/123/123 103/103/103 101/102/102
f 102/101/101 98/97/97 97/98/98 106/105/105
f 94/92/92 91/91/91 111/111/111
f 97/98/98 93/93/93 94/92/92 109/108/108
f 92/94/94 85/86/86 87/89/89
f 92/94/94 95/96/96 82/84/84 85/86/86
f 82/84/84 95/96/96 81/81/81
f 84/82/82 79/79/79 80/78/78
f 78/80/80 99/100/100 77/76/76
f 125/124/124 124/125/125 74/75/75 76/77/77
f 103/103/103 123/123/123 125/124/124 76/77/77
f 123/123/123 126/126/126 125/124/124
f 77/76/76 99/100/100 100/99/99 76/77/77
f 74/75/75 124/125/125 73/73/73
f 67/68/68 29/29/29 1/3/3 66/65/65
f 72/71/71 68/67/67 65/66/66 80/78/78
f 83/83/83 62/61/61 60/59/59 86/85/85
f 57/58/58 128/127/127 127/128/128 56/55/55
f 128/127/127 129/129/129 127/128/128
f 132/130/130 131/131/131 130/132/132 127/128/128
f 129/129/129 12/14/14 132/130/130 127/128/128
f 130/132/132 131/131/131 133/133/133
f 133/133/133 131/131/131 135/134/134 134/135/135
f 135/134/134 136/136/136 134/135/135
f 140/137/137 139/138/138 138/139/139 137/140/140
f 136/136/136 135/134/134 140/137/137 137/140/140
f 138/139/139 141/141/141 137/140/140
f 144/142/142 143/143/143 142/144/144 141/141/141
f 138/139/139 144/142/142 141/141/141
f 143/143/143 146/145/145 145/146/146 142/144/144
f 149/147/147 148/148/148 147/149/149 145/146/146
f 146/145/145 149/147/147 145/146/146
f 147/149/149 148/148/148 150/150/150
f 24/24/24 148/148/148 149/147/147
f 152/151/151 151/152/152 146/145/145 143/143/143
f 152/151/151 143/143/143 144/142/142
f 15/16/16 139/138/138 140/137/137
f 135/134/134 131/131/131 132/130/130 140/137/137
f 89/87/87 58/57/57 55/56/56 90/90/90
f 127/128/128 130/132/132 53/54/54 56/55/55
f 55/56/56 54/53/53 116/116/116 90/90/90
f 116/116/116 54/53/53 52/51/51 115/114/114
f 51/52/52 133/133/133 134/135/135 50/49/49
f 115/114/114 52/51/51 49/50/50 114/115/115
f 134/135/135 136/136/136 47/48/48 50/49/49
f 49/50/50 48/47/47 117/117/117 114/115/115
f 47/48/48 136/136/136 137/140/140 46/45/45
f 117/117/117 48/47/47 45/46/46 119/118/118
f 45/46/46 43/44/44 121/120/120 119/118/118
f 141/141/141 142/144/144 42/41/41 44/43/43
f 43/44/44 41/42/42 120/121/121 121/120/120
f 142/144/144 145/146/146 40/39/39 42/41/41
f 41/42/42 39/40/40 122/122/122 120/121/121
f 39/40/40 38/37/37 126/126/126 122/122/122
f 37/38/38 147/149/149 150/150/150 36/35/35
f 126/126/126 38/37/37 35/36/36 125/124/124
f 31/32/32 70/69/69 69/70/70 33/34/34
f 124/125/125 34/33/33 33/34/34 73/73/73
f 27/28/28 28/27/27 70/69/69 31/32/32
f 17/18/18 19/20/20 24/24/24 149/147/147
f 151/152/152 17/18/18 149/147/147
f 16/15/15 17/18/18 151/152/152 152/151/151
f 132/130/130 13/13/13 15/16/16 140/137/137
f 15/16/16 16/15/15 152/151/151 144/142/142
f 139/138/138 15/16/16 144/142/142
f 12/14/14 129/129/129 11/11/11
f 9/10/10 10/9/9 18/17/17 14/12/12
f 61/62/62 4/6/6 7/8/8 59/60/60
f 3/1/1 23/23/23 6/4/4
f 10/9/9 5/5/5 6/4/4
f 8/7/7 11/11/11 129/129/129 128/127/127
f 7/8/8 8/7/7 128/127/127
f 22/21/21 23/23/23 3/1/1 1/3/3
f 29/29/29 26/25/25 22/21/21 1/3/3
f 20/19/19 18/17/17 10/9/9 6/4/4
f 23/23/23 20/19/19 6/4/4
f 12/14/14 13/13/13 132/130/130
f 21/22/22 25/26/26 30/30/30 150/150/150
f 148/148/148 24/24/24 21/22/22 150/150/150
f 146/145/145 151/152/152 149/147/147
f 138/139/139 139/138/138 144/142/142
f 1/3/3 2/2/2 63/64/64 66/65/65
f 63/64/64 2/2/2 4/6/6 61/62/62
f 59/60/60 7/8/8 128/127/127 57/58/58
f 28/27/27 29/29/29 67/68/68 70/69/69
f 53/54/54 130/132/132 133/133/133 51/52/52
f 150/150/150 30/30/30 32/31/31 36/35/35
f 145/146/146 147/149/149 37/38/38 40/39/39
f 137/140/140 141/141/141 44/43/43 46/45/45
f 65/66/66 64/63/63 84/82/82 80/78/78
f 84/82/82 64/63/63 62/61/61 83/83/83
f 86/85/85 60/59/59 58/57/57 89/87/87
f 72/71/71 75/74/74 71/72/72
f 96/95/95 99/100/100 78/80/80 81/81/81
f 95/96/96 96/95/95 81/81/81
f 90/90/90 116/116/116 113/112/112 111/111/111
f 91/91/91 88/88/88 90/90/90 111/111/111
f 35/36/36 34/33/33 124/125/125 125/124/124
f 122/122/122 126/126/126 123/123/123 101/102/102
f 104/104/104 122/122/122 101/102/102
f 121/120/120 118/119/119 119/118/118
