# Blender 4.0.1
# www.blender.org
mtllib rainbowhouse.mtl
o 立方体.009
v -2.384758 1.445263 2.932118
v -0.000000 5.515423 0.547359
v -2.384758 1.445263 -1.837399
v 2.384758 1.445263 2.932118
v 2.384758 1.445263 -1.837399
v -1.920386 -2.645531 2.491362
v -1.920386 1.626901 2.491362
v -1.920386 -2.645531 -1.412999
v -1.920386 1.626901 -1.412999
v 1.920386 -2.645531 2.491362
v 1.920386 1.626901 2.491362
v 1.920386 -2.645531 -1.412999
v 1.920386 1.626901 -1.412999
vn -0.8628 0.5055 -0.0000
vn -0.0000 0.5055 -0.8628
vn 0.8628 0.5055 -0.0000
vn -0.0000 0.5055 0.8628
vn -0.0000 -1.0000 -0.0000
vn -1.0000 -0.0000 -0.0000
vn -0.0000 -0.0000 -1.0000
vn 1.0000 -0.0000 -0.0000
vn -0.0000 -0.0000 1.0000
vn -0.0000 1.0000 -0.0000
vt 0.000904 0.346378
vt 0.000904 0.000904
vt 0.263048 0.225921
vt 0.264855 0.346378
vt 0.264855 0.000904
vt 0.527000 0.225921
vt 0.000904 0.693660
vt 0.000904 0.348185
vt 0.263048 0.573203
vt 0.264855 0.693660
vt 0.264855 0.348185
vt 0.527000 0.573203
vt 0.523524 0.983962
vt 0.235029 0.983962
vt 0.235029 0.695467
vt 0.523524 0.695467
vt 0.528807 0.295635
vt 0.528807 0.000904
vt 0.764971 0.000904
vt 0.764971 0.295635
vt 0.528807 0.888712
vt 0.528807 0.593981
vt 0.761125 0.593981
vt 0.761125 0.888712
vt 0.528807 0.592174
vt 0.528807 0.297442
vt 0.764971 0.297442
vt 0.764971 0.592174
vt 0.000904 0.990198
vt 0.000904 0.695467
vt 0.233222 0.695467
vt 0.233222 0.990198
vt 0.995250 0.830145
vt 0.762932 0.830145
vt 0.762932 0.593981
vt 0.995250 0.593981
vt 0.999096 0.237068
vt 0.766778 0.237068
vt 0.766778 0.000904
vt 0.999096 0.000904
s 0
usemtl mirror
f 1/1/1 2/2/1 3/3/1
f 3/4/2 2/5/2 5/6/2
f 5/7/3 2/8/3 4/9/3
f 4/10/4 2/11/4 1/12/4
f 3/13/5 5/14/5 4/15/5 1/16/5
f 6/17/6 7/18/6 9/19/6 8/20/6
f 8/21/7 9/22/7 13/23/7 12/24/7
f 12/25/8 13/26/8 11/27/8 10/28/8
f 10/29/9 11/30/9 7/31/9 6/32/9
f 8/33/5 12/34/5 10/35/5 6/36/5
f 13/37/10 9/38/10 7/39/10 11/40/10
