# Blender 4.0.1
# www.blender.org
mtllib phone.mtl
o 立方体.008
v 0.182756 -1.496033 -0.916815
v 0.182756 1.621779 -0.916815
v 0.182756 -1.496033 0.916815
v 0.182756 1.621779 0.916815
v 0.102496 -1.496033 0.916815
v 0.102495 -1.496033 -0.916815
v 0.102495 1.621779 -0.916815
v 0.102496 1.621779 0.916815
v -0.182756 -1.602481 -1.237198
v -0.182756 -1.942162 -0.897518
v -0.182756 -1.732471 -1.211342
v -0.182756 -1.842672 -1.137708
v -0.182756 -1.916305 -1.027508
v -0.182756 1.942162 -0.897518
v -0.182756 1.602481 -1.237198
v -0.182756 1.916305 -1.027508
v -0.182756 1.842672 -1.137708
v -0.182756 1.732471 -1.211342
v -0.182756 -1.942162 0.897518
v -0.182756 -1.602481 1.237198
v -0.182756 -1.916305 1.027508
v -0.182756 -1.842672 1.137708
v -0.182756 -1.732471 1.211342
v -0.182756 1.602481 1.237198
v -0.182756 1.942162 0.897518
v -0.182756 1.732471 1.211342
v -0.182756 1.842672 1.137708
v -0.182756 1.916305 1.027508
v 0.182756 -1.602481 1.237198
v 0.182756 -1.942162 0.897518
v 0.182756 -1.701972 0.997008
v 0.182756 -1.732471 1.211342
v 0.182756 -1.842672 1.137708
v 0.182756 -1.916305 1.027508
v 0.182756 -1.942162 -0.897518
v 0.182756 -1.602481 -1.237198
v 0.182756 -1.701972 -0.997008
v 0.182756 -1.916305 -1.027508
v 0.182756 -1.842672 -1.137708
v 0.182756 -1.732471 -1.211342
v 0.182756 1.602481 -1.237198
v 0.182756 1.942162 -0.897518
v 0.182756 1.701972 -0.997008
v 0.182756 1.732471 -1.211342
v 0.182756 1.842672 -1.137708
v 0.182756 1.916305 -1.027508
v 0.182756 1.942162 0.897518
v 0.182756 1.602481 1.237198
v 0.182756 1.701972 0.997008
v 0.182756 1.916305 1.027508
v 0.182756 1.842672 1.137708
v 0.182756 1.732471 1.211342
vn 0.9681 -0.1773 -0.1773
vn 0.9681 0.1773 -0.1773
vn 0.7897 0.4338 -0.4338
vn 0.7897 -0.4338 -0.4338
vn 0.9681 0.1773 0.1773
vn 1.0000 -0.0000 -0.0000
vn 0.8638 -0.5013 0.0494
vn 0.8638 -0.5013 -0.0494
vn -0.8638 -0.0494 -0.5013
vn -0.8638 0.0494 -0.5013
vn 0.8638 0.0494 -0.5013
vn 0.8638 -0.0494 -0.5013
vn -0.8638 0.5013 0.0494
vn 0.8638 0.5013 0.0494
vn 0.8638 0.5013 -0.0494
vn -0.8638 0.5013 -0.0494
vn -0.8638 -0.5013 0.0494
vn -0.8515 -0.4844 0.2007
vn -0.8515 -0.3708 0.3708
vn -0.8515 -0.2007 0.4844
vn -0.8638 -0.0494 0.5013
vn -0.8638 0.0494 0.5013
vn -0.8515 0.2007 0.4844
vn -0.8515 0.3708 0.3708
vn -0.8515 0.4844 0.2007
vn -0.8515 0.4844 -0.2007
vn -0.8515 0.3708 -0.3708
vn -0.8515 0.2007 -0.4844
vn -0.8515 -0.2007 -0.4844
vn -0.8515 -0.3708 -0.3708
vn -0.8515 -0.4844 -0.2007
vn -0.8638 -0.5013 -0.0494
vn 0.8638 -0.0494 0.5013
vn 0.8638 0.0494 0.5013
vn 0.9681 -0.1773 0.1773
vn 0.7897 0.4338 0.4338
vn 0.7897 -0.4338 0.4338
vn 0.8515 -0.2007 0.4844
vn 0.8515 -0.3708 0.3708
vn 0.8515 -0.4844 0.2007
vn 0.8515 -0.4844 -0.2007
vn 0.8515 -0.3708 -0.3708
vn 0.8515 -0.2007 -0.4844
vn 0.8515 0.2007 -0.4844
vn 0.8515 0.3708 -0.3708
vn 0.8515 0.4844 -0.2007
vn 0.8515 0.4844 0.2007
vn 0.8515 0.3708 0.3708
vn 0.8515 0.2007 0.4844
vt 0.485749 0.600073
vt 0.436857 0.392742
vt 0.599436 0.371177
vt 0.426517 0.379991
vt 0.431572 0.362848
vt 0.590729 0.341737
vt 0.603317 0.356539
vt 0.626174 0.360330
vt 0.676432 0.573457
vt 0.492484 0.621152
vt 0.651641 0.600040
vt 0.539300 0.380235
vt 0.537677 0.382251
vt 0.537205 0.384579
vt 0.537957 0.386865
vt 0.539819 0.388762
vt 0.595901 0.427151
vt 0.598589 0.428369
vt 0.601693 0.428722
vt 0.604742 0.428158
vt 0.607270 0.426762
vt 0.635938 0.403204
vt 0.637562 0.401188
vt 0.638033 0.398860
vt 0.637281 0.396574
vt 0.635419 0.394677
vt 0.579337 0.356288
vt 0.576649 0.355070
vt 0.573545 0.354717
vt 0.570497 0.355281
vt 0.567968 0.356677
vt 0.406781 0.389432
vt 0.457039 0.602558
vt 0.479896 0.606349
vt 0.648328 0.578508
vt 0.656696 0.582898
vt 0.407035 0.380483
vt 0.411835 0.372289
vt 0.420452 0.366097
vt 0.602660 0.341927
vt 0.613586 0.345528
vt 0.621843 0.351990
vt 0.676178 0.582405
vt 0.671377 0.590599
vt 0.662761 0.596792
vt 0.480553 0.620961
vt 0.469627 0.617360
vt 0.461370 0.610899
s 1
usemtl phone
f 4/1/1 3/2/2 5/2/3 8/1/4
f 1/3/5 3/2/2 31/4/6 30/5/7 35/6/8 37/7/6
f 9/8/9 15/9/10 41/9/11 36/8/12
f 25/10/13 47/10/14 42/11/15 14/11/16
f 19/12/17 21/13/18 22/14/19 23/15/20 20/16/21 24/17/22 26/18/23 27/19/24 28/20/25 25/21/13 14/22/16 16/23/26 17/24/27 18/25/28 15/26/10 9/27/9 11/28/29 12/29/30 13/30/31 10/31/32
f 29/32/33 48/33/34 24/33/22 20/32/21
f 3/2/2 4/1/1 49/34/6 48/33/34 29/32/33 31/4/6
f 4/1/1 2/35/35 43/36/6 42/11/15 47/10/14 49/34/6
f 2/35/35 1/3/5 37/7/6 36/8/12 41/9/11 43/36/6
f 6/3/36 7/35/37 8/1/4 5/2/3
f 1/3/5 2/35/35 7/35/37 6/3/36
f 2/35/35 4/1/1 8/1/4 7/35/37
f 3/2/2 1/3/5 6/3/36 5/2/3
f 29/32/33 32/37/38 31/4/6
f 32/37/38 33/38/39 31/4/6
f 33/38/39 34/39/40 31/4/6
f 34/39/40 30/5/7 31/4/6
f 35/6/8 38/40/41 37/7/6
f 38/40/41 39/41/42 37/7/6
f 39/41/42 40/42/43 37/7/6
f 40/42/43 36/8/12 37/7/6
f 41/9/11 44/43/44 43/36/6
f 44/43/44 45/44/45 43/36/6
f 45/44/45 46/45/46 43/36/6
f 46/45/46 42/11/15 43/36/6
f 47/10/14 50/46/47 49/34/6
f 50/46/47 51/47/48 49/34/6
f 51/47/48 52/48/49 49/34/6
f 52/48/49 48/33/34 49/34/6
f 19/5/17 30/5/7 34/39/40 21/39/18
f 21/39/18 34/39/40 33/38/39 22/38/19
f 22/38/19 33/38/39 32/37/38 23/37/20
f 23/37/20 32/37/38 29/32/33 20/32/21
f 47/10/14 25/10/13 28/46/25 50/46/47
f 50/46/47 28/46/25 27/47/24 51/47/48
f 51/47/48 27/47/24 26/48/23 52/48/49
f 52/48/49 26/48/23 24/33/22 48/33/34
f 35/6/8 10/6/32 13/40/31 38/40/41
f 38/40/41 13/40/31 12/41/30 39/41/42
f 39/41/42 12/41/30 11/42/29 40/42/43
f 40/42/43 11/42/29 9/8/9 36/8/12
f 14/11/16 42/11/15 46/45/46 16/45/26
f 16/45/26 46/45/46 45/44/45 17/44/27
f 17/44/27 45/44/45 44/43/44 18/43/28
f 18/43/28 44/43/44 41/9/11 15/9/10
f 30/5/7 19/5/17 10/6/32 35/6/8
