# Blender 4.0.1
# www.blender.org
mtllib milktea.mtl
o èçƒ.007
v 0.779231 1.744878 -0.686233
v 0.779231 1.687116 -0.904812
v 0.997809 1.687116 -0.686233
v 0.779231 1.555749 -1.134609
v 1.227606 1.555749 -0.686233
v 0.779231 1.424381 -1.134609
v 1.227606 1.424381 -0.686233
v 1.276337 1.424381 -0.599483
v 1.276337 1.555749 -0.599483
v 1.419392 1.424381 -0.189127
v 1.419392 1.555749 -0.189127
v 1.276337 1.315939 -0.189127
v 1.276337 1.315939 0.307980
v 1.419392 1.424381 0.307980
v 1.276337 1.424381 0.718337
v 1.276337 1.555749 0.718337
v 1.419392 1.555749 0.307980
v 1.276337 1.664191 0.307980
v 1.276337 1.664191 -0.189127
v 1.227606 1.687116 0.307980
v 1.227606 1.687116 -0.189127
v 0.779231 1.805605 0.307980
v 0.779231 1.805605 -0.189127
v 0.692480 1.818483 0.307980
v 0.692480 1.818483 -0.189127
v 0.282124 1.856287 0.307980
v 0.282124 1.856287 -0.189127
v 0.282124 1.818483 0.718336
v -0.214983 1.856287 0.307980
v -0.214983 1.818483 0.718336
v -0.214983 1.805605 0.805087
v 0.282124 1.805605 0.805087
v 0.282124 1.687116 1.253463
v -0.214983 1.687116 1.253463
v -0.214983 1.664191 1.302193
v 0.282124 1.664191 1.302193
v 0.282124 1.555749 1.445248
v -0.214983 1.555749 1.445248
v -0.214983 1.424381 1.445248
v 0.282124 1.424381 1.445248
v -0.214983 1.315939 1.302193
v 0.282124 1.315939 1.302193
v 0.282124 1.293014 1.253463
v -0.214983 1.293014 1.253463
v -0.214983 1.174525 0.805087
v 0.282124 1.174525 0.805087
v 0.282124 1.161647 0.718336
v -0.214983 1.161647 0.718336
v -0.214983 1.123843 0.307980
v 0.282124 1.123843 0.307980
v 0.282124 1.123843 -0.189127
v -0.214983 1.123843 -0.189127
v 0.282124 1.161647 -0.599483
v -0.214983 1.161647 -0.599483
v -0.214983 1.174525 -0.686233
v 0.282124 1.174525 -0.686233
v 0.282124 1.293014 -1.134609
v -0.214983 1.293014 -1.134609
v -0.214983 1.315939 -1.183340
v 0.282124 1.315939 -1.183340
v 0.282124 1.424381 -1.326394
v -0.214983 1.424381 -1.326394
v 0.282124 1.555749 -1.326394
v -0.214983 1.555749 -1.326394
v -0.214983 1.664191 -1.183340
v 0.282124 1.664191 -1.183340
v 0.282124 1.687116 -1.134609
v -0.214983 1.687116 -1.134609
v -0.214983 1.805605 -0.686233
v 0.282124 1.805605 -0.686233
v 0.282124 1.818483 -0.599483
v -0.214983 1.818483 -0.599483
v -0.214983 1.856287 -0.189127
v -0.625339 1.818483 -0.189127
v -0.625339 1.818483 0.307980
v -0.712089 1.805605 0.307980
v -0.712089 1.805605 -0.189127
v -1.160465 1.687116 0.307980
v -1.160465 1.687116 -0.189127
v -1.209196 1.664191 0.307980
v -1.209196 1.664191 -0.189127
v -1.209196 1.555749 -0.599483
v -1.160465 1.555749 -0.686233
v -0.930668 1.687116 -0.686233
v -1.209196 1.424381 -0.599483
v -1.160465 1.424381 -0.686233
v -1.209196 1.315939 -0.189127
v -1.160465 1.293014 -0.189127
v -0.930668 1.293014 -0.686233
v -0.712089 1.293014 -0.904812
v -0.712089 1.424381 -1.134609
v -0.712089 1.235252 -0.686233
v -1.209196 1.315939 0.307980
v -1.160465 1.293014 0.307980
v -0.712089 1.174525 0.307980
v -0.712089 1.174525 -0.189127
v -0.712089 1.235252 0.805087
v -0.930668 1.293014 0.805087
v -0.625339 1.161647 0.307980
v -0.625339 1.161647 -0.189127
v -1.209196 1.424381 0.718337
v -1.160465 1.424381 0.805087
v -1.209196 1.555749 0.718337
v -1.160465 1.555749 0.805087
v -0.712089 1.424381 1.253463
v -0.712089 1.555749 1.253463
v -0.625339 1.555749 1.302193
v -0.625339 1.424381 1.302193
v -1.352250 1.424381 0.307980
v -1.352250 1.555749 0.307980
v -1.352250 1.424381 -0.189127
v -1.352250 1.555749 -0.189127
v -0.712089 1.293014 1.023665
v -0.712089 1.555749 -1.134609
v -0.625339 1.424381 -1.183340
v -0.625339 1.555749 -1.183340
v -0.712089 1.687116 -0.904812
v -0.712089 1.744878 -0.686233
v -0.930668 1.687116 0.805087
v -0.712089 1.744878 0.805087
v -0.712089 1.687116 1.023665
v 0.692480 1.424381 -1.183340
v 0.692480 1.555749 -1.183340
v 0.779231 1.235252 -0.686233
v 0.779231 1.293014 -0.904812
v 0.997809 1.293014 -0.686233
v 0.779231 1.174525 -0.189127
v 1.227606 1.293014 -0.189127
v 0.779231 1.174525 0.307980
v 1.227606 1.293014 0.307980
v 0.779231 1.235252 0.805087
v 0.997809 1.293014 0.805087
v 0.779231 1.293014 1.023665
v 0.779231 1.424381 1.253463
v 1.227606 1.424381 0.805087
v 0.779231 1.555749 1.253463
v 1.227606 1.555749 0.805087
v 0.779231 1.687116 1.023665
v 0.997809 1.687116 0.805087
v 0.779231 1.744878 0.805087
v 0.692480 1.424381 1.302193
v 0.692480 1.555749 1.302193
v 0.692480 1.161647 -0.189127
v 0.692480 1.161647 0.307980
v -0.732237 -1.169380 1.063153
v -0.717175 1.615323 1.043411
v -0.732237 -1.169380 -0.944300
v -0.717175 1.615323 -0.924558
v 0.799378 -1.169380 1.063153
v 0.784316 1.615323 1.043411
v 0.799378 -1.169380 -0.944300
v 0.784316 1.615323 -0.924558
vn 0.3427 0.9083 -0.2400
vn 0.2403 0.9086 -0.3415
vn 0.1791 0.9674 -0.1791
vn 0.6542 0.5878 -0.4759
vn 0.4786 0.5726 -0.6656
vn 0.6656 -0.5726 -0.4786
vn 0.4759 -0.5878 -0.6542
vn 0.7075 0.6226 -0.3344
vn 0.7397 -0.5848 -0.3329
vn 0.8377 0.5280 -0.1395
vn 0.8377 -0.5280 -0.1395
vn 0.4953 -0.8626 -0.1031
vn 0.8377 -0.5280 0.1395
vn 0.5059 -0.8560 0.1069
vn 0.7075 -0.6226 0.3344
vn 0.8377 0.5280 0.1395
vn 0.7397 0.5848 0.3329
vn 0.4953 0.8626 0.1031
vn 0.5059 0.8560 -0.1069
vn 0.3457 0.9350 -0.0789
vn 0.3345 0.9395 0.0743
vn 0.1853 0.9809 -0.0592
vn 0.1883 0.9802 0.0614
vn 0.1172 0.9916 -0.0553
vn 0.1237 0.9904 0.0609
vn 0.0439 0.9981 -0.0439
vn 0.0439 0.9981 0.0439
vn 0.0609 0.9904 0.1237
vn -0.0545 0.9912 0.1206
vn -0.0439 0.9981 0.0439
vn 0.0614 0.9802 0.1883
vn -0.0575 0.9797 0.1921
vn -0.0789 0.9350 0.3457
vn 0.0789 0.9350 0.3457
vn 0.1069 0.8560 0.5059
vn -0.1069 0.8560 0.5059
vn -0.1395 0.5280 0.8377
vn 0.1395 0.5280 0.8377
vn 0.1395 -0.5280 0.8377
vn -0.1395 -0.5280 0.8377
vn 0.1031 -0.8626 0.4953
vn -0.1031 -0.8626 0.4953
vn -0.0743 -0.9395 0.3345
vn 0.0743 -0.9395 0.3345
vn 0.0615 -0.9802 0.1884
vn -0.0589 -0.9807 0.1864
vn -0.0547 -0.9915 0.1179
vn 0.0609 -0.9904 0.1237
vn 0.0439 -0.9981 0.0439
vn -0.0439 -0.9981 0.0439
vn -0.0439 -0.9981 -0.0439
vn 0.0439 -0.9981 -0.0439
vn -0.0609 -0.9904 -0.1237
vn 0.0609 -0.9904 -0.1237
vn 0.0614 -0.9802 -0.1883
vn -0.0614 -0.9802 -0.1883
vn -0.0782 -0.9357 -0.3439
vn 0.0789 -0.9350 -0.3457
vn 0.1069 -0.8560 -0.5059
vn -0.1052 -0.8575 -0.5036
vn -0.1395 -0.5280 -0.8377
vn 0.1395 -0.5280 -0.8377
vn -0.1395 0.5280 -0.8377
vn 0.1395 0.5280 -0.8377
vn 0.1031 0.8626 -0.4953
vn -0.1128 0.8673 -0.4848
vn -0.0807 0.9367 -0.3406
vn 0.0743 0.9395 -0.3345
vn 0.0615 0.9802 -0.1884
vn -0.0592 0.9809 -0.1853
vn -0.0553 0.9916 -0.1172
vn 0.0609 0.9904 -0.1237
vn -0.0439 0.9981 -0.0439
vn -0.1237 0.9904 -0.0609
vn -0.1179 0.9915 0.0547
vn -0.1884 0.9802 -0.0615
vn -0.1864 0.9807 0.0589
vn -0.3345 0.9395 -0.0743
vn -0.3457 0.9350 0.0789
vn -0.4953 0.8626 -0.1031
vn -0.5059 0.8560 0.1069
vn -0.3415 0.9086 -0.2403
vn -0.6656 0.5726 -0.4786
vn -0.7397 0.5848 -0.3329
vn -0.6542 -0.5878 -0.4759
vn -0.7075 -0.6226 -0.3344
vn -0.3427 -0.9083 -0.2400
vn -0.3457 -0.9350 -0.0789
vn -0.5059 -0.8560 -0.1069
vn -0.4941 -0.5592 -0.6657
vn -0.2400 -0.9088 -0.3414
vn -0.1780 -0.9678 -0.1780
vn -0.3345 -0.9395 0.0743
vn -0.4953 -0.8626 0.1031
vn -0.1883 -0.9802 -0.0614
vn -0.1921 -0.9797 0.0575
vn -0.3415 -0.9086 0.2403
vn -0.1797 -0.9672 0.1798
vn -0.1237 -0.9904 -0.0609
vn -0.1206 -0.9912 0.0545
vn -0.6656 -0.5726 0.4786
vn -0.7397 -0.5848 0.3329
vn -0.6542 0.5878 0.4759
vn -0.7075 0.6226 0.3344
vn -0.4759 0.5878 0.6542
vn -0.4786 -0.5726 0.6656
vn -0.3329 -0.5848 0.7397
vn -0.3344 0.6226 0.7075
vn -0.8377 0.5280 0.1395
vn -0.8377 -0.5280 0.1395
vn -0.8377 0.5280 -0.1395
vn -0.8377 -0.5280 -0.1395
vn -0.2403 -0.9086 0.3415
vn -0.4759 0.5871 -0.6548
vn -0.3344 0.6226 -0.7075
vn -0.3400 -0.5820 -0.7387
vn -0.2398 0.9076 -0.3446
vn -0.1791 0.9674 -0.1791
vn -0.3427 0.9083 0.2400
vn -0.1798 0.9672 0.1797
vn -0.2400 0.9083 0.3427
vn 0.3329 0.5848 -0.7397
vn 0.3344 -0.6226 -0.7075
vn 0.2400 -0.9083 -0.3427
vn 0.1780 -0.9678 -0.1780
vn 0.3415 -0.9086 -0.2403
vn 0.3345 -0.9395 -0.0743
vn 0.1883 -0.9802 -0.0614
vn 0.3457 -0.9350 0.0789
vn 0.1853 -0.9809 0.0592
vn 0.3427 -0.9083 0.2400
vn 0.1791 -0.9674 0.1791
vn 0.2403 -0.9086 0.3415
vn 0.6542 -0.5878 0.4759
vn 0.4786 -0.5726 0.6656
vn 0.6656 0.5726 0.4786
vn 0.4759 0.5878 0.6542
vn 0.3415 0.9086 0.2403
vn 0.2400 0.9083 0.3427
vn 0.1780 0.9678 0.1780
vn 0.3344 0.6226 0.7075
vn 0.3329 -0.5848 0.7397
vn 0.1172 -0.9916 0.0553
vn 0.1237 -0.9904 -0.0609
vn -0.2480 -0.9365 0.2481
vn -0.2471 0.9370 0.2470
vn -0.2471 0.9370 -0.2470
vn -0.2480 -0.9365 -0.2481
vn 0.2471 0.9370 -0.2470
vn 0.2480 -0.9365 -0.2481
vn 0.2471 0.9370 0.2470
vn 0.2480 -0.9365 0.2481
vt 0.686873 0.237830
vt 0.686876 0.257777
vt 0.666926 0.257777
vt 0.732239 0.216858
vt 0.732245 0.257777
vt 0.732239 0.870668
vt 0.732244 0.829749
vt 0.777610 0.829749
vt 0.777606 0.870668
vt 0.732244 0.821832
vt 0.777611 0.821832
vt 0.732246 0.784383
vt 0.777612 0.784383
vt 0.815060 0.784383
vt 0.777612 0.739017
vt 0.815060 0.739017
vt 0.777611 0.701567
vt 0.732246 0.739017
vt 0.732244 0.701567
vt 0.694795 0.739017
vt 0.694795 0.784383
vt 0.686878 0.784383
vt 0.686878 0.739017
vt 0.645954 0.784383
vt 0.645954 0.739017
vt 0.959075 0.923062
vt 0.951158 0.923062
vt 0.951158 0.877696
vt 0.959075 0.877696
vt 0.913709 0.923062
vt 0.913709 0.877696
vt 0.913709 0.840246
vt 0.868343 0.840246
vt 0.868343 0.877696
vt 0.913709 0.832329
vt 0.868343 0.832329
vt 0.686879 0.521080
vt 0.686879 0.566446
vt 0.645954 0.566446
vt 0.645954 0.521080
vt 0.694797 0.566446
vt 0.694797 0.521080
vt 0.732248 0.521080
vt 0.732248 0.566446
vt 0.777614 0.566446
vt 0.777614 0.521080
vt 0.815062 0.566446
vt 0.815062 0.521080
vt 0.822978 0.521080
vt 0.822978 0.566446
vt 0.683097 0.100465
vt 0.645954 0.083295
vt 0.664990 0.042116
vt 0.702133 0.059286
vt 0.709319 0.062608
vt 0.690283 0.103787
vt 0.724276 0.119501
vt 0.743312 0.078322
vt 0.784491 0.097358
vt 0.765455 0.138537
vt 0.818484 0.113071
vt 0.799448 0.154251
vt 0.806634 0.157573
vt 0.825670 0.116393
vt 0.862813 0.133563
vt 0.843777 0.174742
vt 0.815062 0.303144
vt 0.822978 0.303144
vt 0.822978 0.348510
vt 0.815062 0.348510
vt 0.777614 0.348510
vt 0.777614 0.303144
vt 0.732248 0.348510
vt 0.732248 0.303144
vt 0.694797 0.303144
vt 0.694797 0.348510
vt 0.686879 0.348510
vt 0.686879 0.303144
vt 0.645954 0.303144
vt 0.645954 0.348510
vt 0.868343 0.960511
vt 0.913709 0.960511
vt 0.913709 0.968428
vt 0.868343 0.968428
vt 0.868343 0.923062
vt 0.830893 0.923062
vt 0.830893 0.877696
vt 0.822976 0.923062
vt 0.822976 0.877696
vt 0.822978 0.303144
vt 0.863901 0.303144
vt 0.863901 0.348510
vt 0.822978 0.348510
vt 0.871819 0.303144
vt 0.871819 0.348510
vt 0.863899 0.257777
vt 0.909268 0.257777
vt 0.909268 0.265694
vt 0.954634 0.257777
vt 0.954634 0.265694
vt 0.999998 0.257777
vt 1.000000 0.303144
vt 0.992084 0.303144
vt 0.954629 0.216858
vt 0.999995 0.237830
vt 0.853076 0.057108
vt 0.862813 0.083584
vt 0.844706 0.075214
vt 1.000000 0.348510
vt 0.992084 0.348510
vt 0.779518 -0.000000
vt 0.820697 0.019036
vt 0.803527 0.056178
vt 0.762348 0.037142
vt 0.729539 -0.000000
vt 0.721168 0.018107
vt 0.800205 0.063365
vt 0.759026 0.044329
vt 0.999998 0.393876
vt 0.954634 0.393876
vt 0.954634 0.385959
vt 0.909268 0.393876
vt 0.909268 0.385959
vt 0.909263 0.434795
vt 0.954629 0.434795
vt 0.777612 0.483631
vt 0.732246 0.483631
vt 0.732245 0.475714
vt 0.777612 0.475714
vt 0.909270 0.348510
vt 0.954636 0.348510
vt 0.909270 0.303144
vt 0.954636 0.303144
vt 0.999995 0.413824
vt 0.909263 0.216858
vt 0.732245 0.393876
vt 0.732246 0.385959
vt 0.777612 0.385959
vt 0.777612 0.393876
vt 0.732239 0.434795
vt 0.686873 0.413824
vt 0.686876 0.393876
vt 0.666926 0.393876
vt 0.863899 0.393876
vt 0.843949 0.257777
vt 0.843949 0.393876
vt 0.686873 0.455766
vt 0.686876 0.475714
vt 0.666926 0.475714
vt 0.732246 0.265694
vt 0.777612 0.265694
vt 0.805705 0.207122
vt 0.787598 0.198752
vt 0.779228 0.216858
vt 0.729249 0.216858
vt 0.746419 0.179716
vt 0.688070 0.197822
vt 0.705240 0.160680
vt 0.655691 0.159751
vt 0.664061 0.141644
vt 0.645954 0.133274
vt 0.822974 0.693651
vt 0.777610 0.693651
vt 0.777606 0.652732
vt 0.822972 0.673703
vt 0.732244 0.693651
vt 0.732239 0.652732
vt 0.732239 0.652732
vt 0.686873 0.631760
vt 0.686876 0.611813
vt 0.732245 0.611813
vt 0.666926 0.611813
vt 0.732246 0.603896
vt 0.777612 0.603896
vt 0.777612 0.611813
vt 0.708562 0.153494
vt 0.749741 0.172530
vt 0.703062 0.009736
vt 0.822975 0.611813
vt 0.822975 0.475714
vt 0.959075 0.968428
vt 0.822976 0.739017
vt 0.822976 0.784383
vt 0.777612 0.257777
vt 0.686875 0.829749
vt 0.822974 0.829749
vt 0.822972 0.849697
vt 0.666926 0.829749
vt 0.686875 0.693651
vt 0.666926 0.693651
vt 0.822975 0.257777
vt 0.959075 0.832329
vt 0.822975 0.393876
vt 0.822976 0.968428
vt 0.822976 0.832329
vt 0.000000 0.961667
vt 0.001802 0.000000
vt 0.181400 0.000000
vt 0.183201 0.961667
vt 0.366402 0.961667
vt 0.367777 0.000000
vt 0.504804 0.000000
vt 0.506178 0.961667
vt 0.185003 0.000000
vt 0.364601 0.000000
vt 0.506178 0.961667
vt 0.507553 0.000000
vt 0.644580 0.000000
vt 0.645954 0.961667
vt 0.962754 0.617996
vt 0.822978 0.617996
vt 0.822978 0.434795
vt 0.962754 0.434795
vt 0.960003 0.832329
vt 0.822976 0.652732
vt 0.960003 0.652732
s 1
usemtl cap
f 3/1/1 2/2/2 1/3/3
f 2/2/2 3/1/1 5/4/4 4/5/5
f 4/6/5 5/7/4 7/8/6 6/9/7
f 7/8/6 5/7/4 9/10/8 8/11/9
f 9/10/8 11/12/10 10/13/11 8/11/9
f 8/11/9 10/13/11 12/14/12
f 12/14/12 10/13/11 14/15/13 13/16/14
f 14/15/13 15/17/15 13/16/14
f 14/15/13 17/18/16 16/19/17 15/17/15
f 16/19/17 17/18/16 18/20/18
f 17/18/16 11/12/10 19/21/19 18/20/18
f 19/21/19 21/22/20 20/23/21 18/20/18
f 20/23/21 21/22/20 23/24/22 22/25/23
f 23/26/22 25/27/24 24/28/25 22/29/23
f 24/28/25 25/27/24 27/30/26 26/31/27
f 28/32/28 24/28/25 26/31/27
f 30/33/29 28/32/28 26/31/27 29/34/30
f 32/35/31 28/32/28 30/33/29 31/36/32
f 34/37/33 33/38/34 32/39/31 31/40/32
f 36/41/35 33/38/34 34/37/33 35/42/36
f 38/43/37 37/44/38 36/41/35 35/42/36
f 40/45/39 37/44/38 38/43/37 39/46/40
f 42/47/41 40/45/39 39/46/40 41/48/42
f 44/49/43 43/50/44 42/47/41 41/48/42
f 46/51/45 43/52/44 44/53/43 45/54/46
f 48/55/47 47/56/48 46/51/45 45/54/46
f 50/57/49 47/56/48 48/55/47 49/58/50
f 52/59/51 51/60/52 50/57/49 49/58/50
f 54/61/53 53/62/54 51/60/52 52/59/51
f 56/63/55 53/62/54 54/61/53 55/64/56
f 58/65/57 57/66/58 56/63/55 55/64/56
f 60/67/59 57/68/58 58/69/57 59/70/60
f 62/71/61 61/72/62 60/67/59 59/70/60
f 64/73/63 63/74/64 61/72/62 62/71/61
f 66/75/65 63/74/64 64/73/63 65/76/66
f 68/77/67 67/78/68 66/75/65 65/76/66
f 70/79/69 67/78/68 68/77/67 69/80/70
f 72/81/71 71/82/72 70/83/69 69/84/70
f 27/30/26 71/82/72 72/81/71 73/85/73
f 72/81/71 74/86/74 73/85/73
f 73/85/73 74/86/74 75/87/75 29/34/30
f 75/87/75 74/86/74 77/88/76 76/89/77
f 77/90/76 79/91/78 78/92/79 76/93/77
f 78/92/79 79/91/78 81/94/80 80/95/81
f 84/96/82 83/97/83 82/98/84 81/94/80
f 79/91/78 84/96/82 81/94/80
f 82/98/84 83/97/83 86/99/85 85/100/86
f 86/99/85 89/101/87 88/102/88 87/103/89
f 85/100/86 86/99/85 87/103/89
f 89/101/87 86/99/85 91/104/90 90/105/91
f 89/106/87 90/107/91 92/108/92
f 87/103/89 88/102/88 94/109/93 93/110/94
f 94/111/93 88/112/88 96/113/95 95/114/96
f 98/115/97 94/111/93 95/114/96 97/116/98
f 96/113/95 100/117/99 99/118/100 95/114/96
f 98/119/97 102/120/101 101/121/102 93/110/94
f 94/109/93 98/119/97 93/110/94
f 102/120/101 104/122/103 103/123/104 101/121/102
f 106/124/105 104/122/103 102/120/101 105/125/106
f 108/126/107 107/127/108 106/128/105 105/129/106
f 103/123/104 110/130/109 109/131/110 101/121/102
f 110/130/109 103/123/104 80/95/81
f 110/130/109 112/132/111 111/133/112 109/131/110
f 105/125/106 102/120/101 98/119/97 113/134/113
f 101/121/102 109/131/110 93/110/94
f 109/131/110 111/133/112 87/103/89 93/110/94
f 111/133/112 85/100/86 87/103/89
f 86/99/85 83/97/83 114/135/114 91/104/90
f 114/136/114 116/137/115 115/138/116 91/139/90
f 111/133/112 112/132/111 82/98/84 85/100/86
f 83/140/83 84/141/82 117/142/117 114/136/114
f 117/142/117 84/141/82 118/143/118
f 104/122/103 119/144/119 78/92/79 80/95/81
f 103/123/104 104/122/103 80/95/81
f 81/94/80 112/132/111 110/130/109 80/95/81
f 118/145/118 84/96/82 79/91/78 77/90/76
f 76/93/77 78/92/79 119/144/119 120/146/120
f 119/147/119 121/148/121 120/149/120
f 64/73/63 116/137/115 65/76/66
f 63/74/64 123/150/122 122/151/123 61/72/62
f 115/138/116 116/137/115 64/73/63 62/71/61
f 61/72/62 122/151/123 60/67/59
f 115/138/116 62/71/61 59/70/60
f 57/66/58 125/152/124 124/153/125 56/63/55
f 125/152/124 126/154/126 124/153/125
f 124/153/125 126/154/126 128/155/127 127/156/128
f 127/156/128 128/155/127 130/157/129 129/158/130
f 129/158/130 130/157/129 132/159/131 131/160/132
f 132/159/131 133/161/133 131/160/132
f 132/162/131 135/163/134 134/164/135 133/165/133
f 135/163/134 137/166/136 136/167/137 134/164/135
f 137/168/136 139/169/138 138/170/139 136/171/137
f 138/170/139 139/169/138 140/172/140
f 136/171/137 142/173/141 141/174/142 134/175/135
f 144/176/143 143/177/144 127/156/128 129/158/130
f 90/107/91 58/65/57 55/64/56 92/108/92
f 127/156/128 143/177/144 53/62/54 56/63/55
f 124/153/125 127/156/128 56/63/55
f 55/64/56 54/61/53 100/117/99 96/113/95
f 92/108/92 55/64/56 96/113/95
f 100/117/99 54/61/53 52/59/51
f 51/60/52 143/177/144 144/176/143 50/57/49
f 99/118/100 100/117/99 52/59/51 49/58/50
f 144/176/143 47/56/48 50/57/49
f 48/55/47 99/118/100 49/58/50
f 144/176/143 129/158/130 131/160/132 46/51/45
f 47/56/48 144/176/143 46/51/45
f 99/118/100 48/55/47 45/54/46 97/116/98
f 95/114/96 99/118/100 97/116/98
f 45/54/46 44/53/43 113/178/113 97/116/98
f 133/179/133 134/175/135 141/174/142 42/47/41
f 43/50/44 133/179/133 42/47/41
f 41/48/42 108/126/107 105/129/106 113/180/113
f 44/49/43 41/48/42 113/180/113
f 141/174/142 40/45/39 42/47/41
f 39/46/40 108/126/107 41/48/42
f 141/174/142 142/173/141 37/44/38 40/45/39
f 38/43/37 107/127/108 108/126/107 39/46/40
f 107/127/108 38/43/37 35/42/36
f 136/171/137 138/170/139 33/38/34 36/41/35
f 142/173/141 136/171/137 36/41/35
f 35/42/36 34/37/33 121/148/121 106/128/105
f 107/127/108 35/42/36 106/128/105
f 33/38/34 138/170/139 140/172/140 32/39/31
f 121/148/121 34/37/33 31/40/32 120/149/120
f 75/87/75 30/33/29 29/34/30
f 26/31/27 27/30/26 73/85/73 29/34/30
f 25/27/24 23/26/22 1/181/3 70/83/69
f 71/82/72 25/27/24 70/83/69
f 16/19/17 137/166/136 135/163/134 15/17/15
f 130/182/129 128/183/127 12/14/12 13/16/14
f 10/13/11 11/12/10 17/18/16 14/15/13
f 122/151/123 123/150/122 4/5/5 6/184/7
f 5/7/4 3/185/1 21/22/20 19/21/19
f 9/10/8 5/7/4 19/21/19
f 2/2/2 4/5/5 123/150/122 66/75/65
f 67/78/68 2/2/2 66/75/65
f 6/9/7 7/8/6 126/186/126 125/187/124
f 21/22/20 3/185/1 1/188/3 23/24/22
f 11/12/10 9/10/8 19/21/19
f 126/186/126 7/8/6 8/11/9 12/14/12
f 128/183/127 126/186/126 12/14/12
f 139/189/138 20/23/21 22/25/23 140/190/140
f 139/189/138 137/166/136 16/19/17 18/20/18
f 20/23/21 139/189/138 18/20/18
f 135/163/134 132/162/131 130/182/129 13/16/14
f 15/17/15 135/163/134 13/16/14
f 1/3/3 2/2/2 67/78/68 70/79/69
f 123/150/122 63/74/64 66/75/65
f 6/184/7 125/191/124 57/68/58 60/67/59
f 122/151/123 6/184/7 60/67/59
f 25/27/24 71/82/72 27/30/26
f 53/62/54 143/177/144 51/60/52
f 22/29/23 24/28/25 28/32/28 32/35/31
f 140/192/140 22/29/23 32/35/31
f 37/44/38 142/173/141 36/41/35
f 131/160/132 133/161/133 43/52/44 46/51/45
f 69/80/70 68/77/67 117/142/117 118/143/118
f 68/77/67 65/76/66 116/137/115 114/136/114
f 117/142/117 68/77/67 114/136/114
f 115/138/116 59/70/60 58/69/57 90/193/91
f 91/139/90 115/138/116 90/193/91
f 72/81/71 69/84/70 118/194/118 77/88/76
f 74/86/74 72/81/71 77/88/76
f 82/98/84 112/132/111 81/94/80
f 88/112/88 89/106/87 92/108/92 96/113/95
f 30/33/29 75/87/75 76/89/77 120/195/120
f 31/36/32 30/33/29 120/195/120
f 121/148/121 119/147/119 104/140/103 106/128/105
f 113/178/113 98/115/97 97/116/98
usemtl milktea
f 145/196/145 146/197/146 148/198/147 147/199/148
f 147/200/148 148/201/147 152/202/149 151/203/150
f 151/199/150 152/204/149 150/205/151 149/200/152
f 149/206/152 150/207/151 146/208/146 145/209/145
f 147/210/148 151/211/150 149/212/152 145/213/145
f 152/214/149 148/195/147 146/215/146 150/216/151
