# Blender 4.0.1
# www.blender.org
mtllib tv.mtl
o 立方体.008
v 0.005915 -1.896201 2.398184
v 0.005913 -1.896201 -2.887911
v 0.005915 1.896201 2.398184
v 0.005913 1.896201 -2.887912
v -0.229247 -1.896201 2.398185
v -0.229249 -1.896201 -2.887911
v -0.229247 1.896201 2.398184
v -0.229249 1.896201 -2.887911
vn 0.9971 -0.0618 0.0444
vn 0.9971 -0.0618 -0.0444
vn 0.9971 0.0618 -0.0444
vn 0.9971 0.0618 0.0444
vn -0.9971 0.0618 -0.0444
vn -0.9971 0.0618 0.0444
vn -0.9971 -0.0618 -0.0444
vn -0.9971 -0.0618 0.0444
vt 0.000598 0.332735
vt 0.000598 0.000598
vt 0.332735 0.000598
vt 0.332735 0.332735
vt 0.000598 0.666069
vt 0.000598 0.333931
vt 0.332735 0.333931
vt 0.332735 0.666069
vt 0.666069 0.332735
vt 0.333931 0.332736
vt 0.333931 0.000598
vt 0.666069 0.000598
vt 0.666069 0.666069
vt 0.333931 0.666069
vt 0.333931 0.333931
vt 0.666069 0.333931
vt 0.332735 0.999402
vt 0.000598 0.999402
vt 0.000598 0.667265
vt 0.332735 0.667265
vt 0.666069 0.999402
vt 0.333931 0.999402
vt 0.333931 0.667265
vt 0.666069 0.667265
s 1
usemtl mirror
f 1/1/1 2/2/2 4/3/3 3/4/4
f 3/5/4 4/6/3 8/7/5 7/8/6
f 7/9/6 8/10/5 6/11/7 5/12/8
f 5/13/8 6/14/7 2/15/2 1/16/1
f 3/17/4 7/18/6 5/19/8 1/20/1
f 8/21/5 4/22/3 2/23/2 6/24/7
